<svg version="1.0" xmlns="http://www.w3.org/2000/svg" width="1842.000000pt" height="848.000000pt" viewBox="0 0 1842.000000 848.000000" preserveAspectRatio="xMidYMid meet">

<g transform="translate(0.000000,848.000000) scale(0.100000,-0.100000)" fill="#00b894" stroke="none">
<path d="M4371 7496 c-48 -17 -108 -71 -132 -118 -11 -22 -25 -66 -31 -98 l-10 -59 -61 -23 c-82 -31 -130 -78 -152 -149 -31 -98 -110 -89 779 -89 705 0 784 2 790 16 11 28 -6 128 -30 175 -27 55 -79 101 -135 119 -40 13 -79 51 -79 75 0 7 -18 33 -40 58 -65 73 -168 100 -264 67 -47 -15 -119 -79 -136 -119 -6 -16 -27 -37 -45 -47 -51 -27 -100 -11 -142 46 -70 95 -97 123 -137 141 -47 21 -124 24 -175 5z m146 -47 c30 -11 103 -77 103 -93 0 -17 52 -77 84 -97 38 -23 108 -25 144 -3 15 8 48 44 74 78 52 70 95 96 161 98 92 1 150 -38 197 -134 22 -44 31 -53 70 -65 25 -8 60 -26 79 -40 36 -28 81 -112 81 -154 0 -24 -5 -27 -46 -33 -79 -10 -1432 -7 -1439 4 -10 16 26 80 59 104 17 13 53 31 79 41 59 22 82 50 90 110 19 139 147 228 264 184z" fill="#00b894"/>
<path d="M11797 6306 c-69 -29 -114 -62 -160 -118 -38 -46 -121 -180 -182 -293 -111 -206 -149 -246 -277 -290 -120 -41 -157 -61 -209 -115 -25 -26 -137 -182 -249 -346 -454 -667 -598 -874 -605 -874 -2 0 -32 7 -66 16 -100 26 -172 7 -232 -61 -35 -38 -76 -146 -92 -237 -5 -34 -14 -44 -90 -93 -107 -71 -185 -165 -185 -224 0 -11 -6 -24 -14 -28 -8 -4 -106 -7 -217 -5 l-202 3 46 47 c48 50 62 76 81 156 6 27 18 52 26 57 8 4 32 15 53 24 46 20 80 69 72 105 -3 14 -24 51 -45 82 -55 79 -54 113 5 177 60 64 77 106 60 147 -9 22 -94 105 -112 109 -1 0 -14 48 -29 107 l-29 108 58 58 c65 66 91 122 74 159 -14 31 -34 29 -112 -13 -74 -40 -90 -37 -75 16 14 48 12 123 -2 142 -17 22 -80 38 -146 38 -43 0 -62 6 -98 30 -52 36 -58 46 -74 125 -24 108 -51 145 -109 145 -34 0 -107 -30 -167 -69 -18 -12 -33 -12 -97 -1 -86 16 -92 19 -135 81 -42 63 -119 129 -149 129 -31 0 -102 -66 -149 -138 -21 -32 -38 -58 -39 -60 -4 -5 -165 -42 -183 -42 -9 0 -51 18 -94 41 -88 45 -145 54 -176 26 -22 -20 -36 -63 -52 -163 -10 -62 -16 -76 -50 -109 l-39 -38 -114 2 c-114 2 -115 2 -136 -25 -27 -34 -27 -85 0 -186 21 -76 21 -78 3 -109 -19 -31 -40 -42 -134 -70 -25 -7 -58 -26 -73 -41 -24 -24 -27 -33 -22 -61 8 -35 55 -126 86 -165 32 -41 25 -82 -22 -127 -53 -52 -99 -118 -99 -144 0 -24 62 -89 105 -111 80 -38 92 -80 55 -178 -45 -117 -11 -162 119 -162 32 0 57 -8 90 -29 41 -27 101 -51 156 -64 11 -3 -251 -5 -581 -6 l-601 -1 -32 38 c-18 20 -51 57 -74 82 -146 156 -833 986 -1001 1209 -41 54 -107 147 -145 207 -278 431 -314 478 -413 526 -115 56 -232 55 -358 -5 -103 -49 -175 -130 -345 -387 -183 -277 -182 -277 -430 -540 -59 -63 -167 -181 -238 -262 -72 -82 -134 -148 -137 -148 -4 0 -31 28 -61 63 -29 34 -81 91 -115 127 -144 152 -177 193 -401 506 -67 93 -142 165 -203 193 -77 36 -175 40 -253 11 -114 -43 -187 -120 -373 -397 -124 -184 -142 -208 -289 -368 -129 -140 -265 -297 -355 -410 -134 -168 -234 -286 -329 -387 l-54 -58 -279 0 -278 0 0 -25 0 -25 2377 -2 2378 -3 -58 -41 c-105 -74 -199 -204 -248 -342 -26 -76 -36 -135 -62 -382 -19 -173 -56 -249 -145 -294 -67 -34 -133 -44 -333 -50 -239 -9 -353 -32 -489 -101 -144 -73 -250 -173 -361 -340 -36 -55 -92 -139 -123 -188 -71 -107 -156 -186 -250 -231 -138 -66 -237 -87 -408 -88 -259 0 -525 69 -822 214 -54 27 -106 48 -115 46 -91 -17 179 -314 453 -498 228 -153 475 -267 736 -340 25 -7 56 -16 70 -20 179 -55 514 -110 670 -110 58 0 80 -4 80 -12 0 -7 -16 -44 -35 -82 -35 -68 -35 -69 -34 -200 2 -230 11 -326 34 -342 16 -12 73 -14 329 -12 294 3 311 4 314 22 6 31 -27 103 -65 141 -62 62 -116 87 -196 93 -84 5 -99 14 -91 51 8 32 44 72 109 119 87 63 156 125 201 180 23 29 45 48 48 43 4 -5 1 -32 -5 -60 -12 -57 -8 -435 5 -463 7 -16 27 -18 202 -18 l193 0 26 -55 c22 -46 31 -55 53 -55 15 -1 281 -1 591 -1 608 1 571 -2 731 51 14 5 71 22 128 39 56 17 146 44 200 60 53 16 117 35 142 42 25 7 50 17 57 23 12 11 320 928 344 1023 11 48 11 54 -6 73 -29 32 -4 37 -610 -110 -22 -5 -73 -16 -113 -24 -79 -16 -99 -27 -114 -66 -24 -60 -71 -191 -94 -260 -14 -41 -29 -84 -34 -95 -5 -11 -24 -65 -43 -120 -59 -169 -89 -249 -100 -262 -7 -10 -54 -13 -174 -13 -133 0 -178 -4 -231 -19 -69 -20 -239 -60 -465 -108 l-128 -27 -30 37 c-40 49 -73 65 -160 77 -39 6 -75 13 -80 16 -13 8 -11 81 2 107 7 12 35 47 64 77 93 99 145 209 145 309 0 50 0 50 58 87 69 44 161 122 221 186 69 75 80 68 97 -56 9 -64 34 -90 81 -83 66 11 105 84 106 197 0 82 -13 118 -58 160 -15 14 -31 34 -37 44 -10 18 -7 19 37 13 70 -10 122 -26 138 -42 8 -7 17 -34 20 -60 12 -84 62 -135 106 -108 50 30 75 148 50 238 -17 61 -90 127 -165 148 -93 27 -91 23 -64 113 39 132 49 186 56 297 7 107 14 127 37 109 20 -15 117 -50 202 -72 78 -21 100 -26 198 -49 26 -6 99 -11 162 -11 97 0 122 3 161 22 46 21 88 72 79 95 -2 7 14 21 38 31 23 11 58 36 76 56 25 26 43 36 65 36 72 0 134 81 175 228 41 150 36 283 -15 386 -14 27 -21 52 -16 55 5 3 20 26 33 51 48 93 21 227 -57 287 -64 48 -171 39 -207 -17 -16 -27 -28 -25 -61 9 -38 40 -105 67 -201 81 -44 6 -96 16 -115 22 -42 13 -187 106 -194 125 -4 11 161 13 954 13 808 0 960 -2 960 -14 0 -7 -16 -49 -36 -92 -51 -113 -114 -307 -179 -554 -31 -118 -67 -254 -81 -302 -13 -48 -24 -94 -24 -103 0 -9 -18 -23 -43 -34 -68 -29 -82 -59 -83 -173 -2 -110 -2 -110 -109 -248 -133 -172 -168 -231 -191 -329 -48 -203 41 -381 244 -486 l52 -27 0 -208 c0 -115 4 -220 10 -234 5 -14 24 -35 42 -46 32 -19 51 -20 430 -20 l398 0 6 -24 c3 -14 2 -53 -3 -88 l-8 -63 -115 -5 c-65 -3 -125 -10 -137 -18 -24 -13 -80 -89 -83 -112 -6 -41 -11 -40 310 -40 266 0 310 2 310 15 0 30 -39 35 -289 35 -139 0 -252 4 -255 9 -4 5 8 21 25 35 29 25 37 26 143 26 145 0 149 3 156 133 l5 92 80 3 c78 3 98 12 88 39 -4 11 -93 13 -484 13 l-479 0 -16 25 c-14 22 -17 107 -21 812 -6 767 -5 789 13 811 l20 24 379 5 c209 2 387 3 395 2 8 -1 281 -3 605 -5 325 -1 598 -3 608 -3 9 -1 26 -10 37 -21 19 -19 20 -33 20 -328 0 -320 4 -355 40 -332 13 8 15 55 15 328 0 353 0 351 -68 392 -30 18 -52 20 -304 20 -149 0 -274 3 -276 7 -3 5 -6 37 -8 73 l-4 65 102 12 c218 25 335 79 383 174 11 21 20 54 20 73 0 39 5 42 86 51 152 17 233 94 175 166 l-19 24 -214 -3 c-205 -3 -273 -10 -446 -47 -40 -9 -96 -15 -125 -13 l-51 3 -23 65 c-38 112 -40 110 78 110 158 0 215 23 265 108 1 2 24 -9 52 -25 45 -25 52 -26 75 -14 31 16 71 95 87 166 22 108 -9 95 235 95 154 0 216 -3 221 -12 4 -6 8 -44 9 -83 4 -147 60 -307 134 -385 33 -34 44 -40 80 -40 34 0 51 -7 84 -35 22 -19 51 -35 64 -35 17 0 27 -9 37 -35 20 -48 66 -65 175 -65 61 1 112 8 176 26 50 14 99 26 110 27 31 3 32 -38 1 -66 -39 -37 -116 -51 -271 -52 -167 0 -231 -17 -300 -77 -46 -40 -55 -64 -33 -86 13 -13 48 -16 48 -4 0 10 140 2 160 -9 9 -5 -66 -9 -178 -9 -221 0 -245 -6 -280 -69 -22 -39 -22 -44 -20 -448 l3 -408 40 0 40 0 5 405 c3 223 7 406 8 408 1 2 18 10 37 18 63 26 745 16 745 -11 0 -7 -11 -24 -24 -38 l-24 -26 -291 -1 c-160 0 -297 -3 -305 -6 -35 -14 -38 -54 -31 -405 6 -286 10 -342 22 -346 8 -3 19 0 24 8 5 8 9 165 9 350 l0 337 23 6 c32 8 520 7 534 -2 19 -12 -27 -106 -79 -159 -60 -62 -132 -123 -145 -123 -5 0 -25 19 -43 41 l-33 42 39 33 c21 18 43 33 48 34 4 0 24 -14 44 -31 20 -18 38 -27 40 -21 5 15 -68 102 -85 102 -7 0 -30 -16 -52 -35 -49 -44 -82 -46 -113 -5 -24 33 -45 38 -55 13 -5 -12 6 -28 37 -54 l43 -38 -27 -35 c-15 -20 -34 -36 -42 -36 -8 0 -14 -10 -14 -25 0 -50 46 -24 102 59 6 9 107 -81 108 -95 0 -14 -78 -59 -103 -59 -37 0 -34 -11 13 -49 40 -32 60 -34 60 -5 0 20 41 74 56 74 15 0 73 -65 84 -96 13 -33 32 -30 54 7 10 17 29 41 42 52 32 27 30 37 -5 37 -20 0 -34 -8 -46 -27 l-18 -26 -13 25 c-12 23 -29 33 -88 52 -17 6 -13 14 34 61 30 30 57 55 61 55 14 0 94 -73 107 -96 17 -33 44 -32 36 1 -4 18 -1 27 10 31 9 3 16 15 16 25 0 21 -16 26 -23 7 -2 -7 -8 -9 -13 -4 -5 4 1 15 14 25 12 9 39 28 58 43 35 27 37 27 67 11 23 -12 47 -14 94 -10 107 10 151 47 177 148 l13 54 374 0 374 0 3 -620 c1 -341 0 -630 -3 -642 l-5 -23 -660 0 c-641 0 -660 -1 -660 -19 0 -10 7 -22 16 -25 21 -8 1293 -8 1333 0 l31 7 0 682 c0 613 -2 683 -16 689 -9 3 -157 6 -329 6 -175 0 -316 4 -319 9 -3 5 17 23 44 41 l50 32 316 -1 c188 -1 324 -6 335 -12 18 -9 19 -42 19 -858 0 -821 -1 -850 -19 -872 -19 -23 -26 -24 -193 -29 -95 -3 -420 -5 -721 -4 -598 2 -582 4 -575 -55 l3 -26 118 -3 119 -3 -7 -102 c-4 -56 -9 -105 -12 -109 -2 -5 -46 -8 -96 -8 -51 0 -101 -3 -112 -6 -18 -4 -75 -94 -75 -117 0 -4 263 -7 584 -7 643 0 622 -2 569 60 -45 54 -76 64 -218 70 l-130 5 -7 100 c-3 55 -4 103 -1 108 2 4 177 7 388 7 408 0 414 1 468 49 59 54 57 18 57 945 0 826 -1 852 -20 883 -35 57 -61 67 -194 73 l-120 5 -27 100 c-42 159 -74 237 -185 447 -103 195 -162 342 -151 372 6 14 62 16 516 16 456 0 509 -2 515 -16 3 -9 4 -19 1 -24 -9 -15 -72 -427 -101 -665 -22 -175 -25 -623 -6 -765 34 -254 93 -467 177 -644 39 -82 67 -129 158 -260 27 -39 27 -40 27 -215 -1 -166 -12 -316 -41 -544 -19 -142 -16 -144 167 -146 l112 -1 5 -29 c4 -21 15 -32 38 -40 47 -16 460 -15 481 2 22 16 43 123 65 321 l17 158 45 -5 c25 -2 114 -12 196 -22 111 -12 197 -16 332 -12 162 4 183 2 187 -12 3 -9 8 -89 12 -179 4 -101 11 -165 18 -170 6 -4 67 -9 136 -12 114 -5 125 -7 122 -23 -7 -41 9 -45 241 -51 122 -3 240 -3 262 2 38 7 40 10 52 57 16 69 33 236 33 322 0 39 4 75 10 78 5 3 33 -1 62 -10 94 -28 276 -62 497 -92 180 -24 606 -29 761 -9 291 38 511 103 640 190 57 38 69 54 70 90 0 51 -17 55 -225 56 -214 1 -425 19 -448 39 -9 7 -19 27 -22 44 -4 18 -16 51 -27 75 -33 69 -63 54 -102 -51 -15 -39 -22 -48 -40 -45 -24 3 -34 28 -69 188 -22 99 -25 105 -50 108 -32 4 -40 -10 -57 -108 -17 -96 -36 -136 -56 -119 -10 8 -14 37 -14 108 -1 128 -18 211 -47 222 -34 12 -48 -9 -73 -111 -36 -149 -41 -155 -100 -125 -36 19 -37 25 -5 55 21 20 25 33 25 79 0 58 -16 158 -33 204 -13 37 -39 41 -156 24 -109 -16 -127 -25 -148 -74 -7 -18 -16 -33 -20 -33 -10 0 -63 52 -63 62 0 4 17 15 37 23 21 9 48 25 60 37 24 22 103 246 103 291 0 32 -23 50 -100 77 -36 13 -84 31 -108 41 -67 29 -124 25 -165 -11 -19 -17 -39 -30 -43 -29 -5 0 -30 44 -56 97 -48 96 -50 122 -11 122 30 0 142 61 167 91 38 45 46 90 56 320 9 220 5 260 -30 279 -31 16 -305 24 -423 11 -81 -8 -116 -16 -138 -32 -36 -25 -73 -88 -100 -167 l-20 -61 -92 45 c-50 24 -95 48 -100 53 -4 4 13 37 40 72 27 35 59 88 72 118 45 106 20 176 -146 409 -140 194 -160 218 -192 232 -36 15 -64 3 -126 -52 -28 -24 -93 -80 -145 -123 -140 -117 -220 -195 -241 -237 -34 -66 -24 -144 37 -275 13 -30 24 -58 24 -63 0 -9 -41 -22 -106 -33 l-31 -6 -6 89 c-6 89 -20 131 -53 162 -21 19 -157 83 -249 117 -33 13 -82 31 -109 42 -69 27 -129 26 -144 -3 -10 -21 -33 -88 -113 -333 -14 -43 -23 -96 -23 -137 -1 -61 2 -69 29 -97 16 -17 50 -46 77 -64 50 -33 59 -51 32 -61 -30 -12 -50 -6 -75 22 -35 38 -79 109 -79 126 0 8 -4 17 -9 20 -5 3 -11 18 -14 33 -2 16 -11 64 -20 108 -34 178 -40 290 -33 573 4 169 10 280 17 287 7 7 196 10 567 10 306 0 1526 1 2710 3 l2153 2 -3 23 c-3 22 -4 22 -235 27 -127 3 -233 7 -235 10 -19 25 -70 86 -113 135 -93 107 -238 279 -340 404 -55 68 -105 128 -110 135 -6 6 -55 66 -110 134 -55 68 -127 156 -160 196 -277 336 -325 402 -511 690 -170 265 -223 321 -357 375 -15 6 -66 11 -112 11 -97 0 -168 -22 -253 -78 -71 -46 -125 -113 -268 -329 -177 -267 -195 -290 -398 -503 -50 -52 -121 -128 -157 -169 l-65 -74 -207 276 c-114 152 -224 293 -244 313 -57 57 -114 79 -208 79 -69 -1 -87 -5 -132 -29 -71 -39 -101 -73 -237 -275 -179 -267 -193 -281 -277 -281 -87 0 -145 56 -254 245 -32 55 -78 133 -103 174 -24 41 -52 88 -62 105 -16 29 -53 91 -173 296 -27 47 -58 99 -67 116 -10 17 -38 64 -62 105 -25 41 -100 168 -168 282 -140 235 -185 286 -286 325 -85 31 -207 31 -287 -2z m209 -29 c80 -17 146 -57 195 -119 34 -43 114 -173 197 -318 10 -19 43 -75 72 -125 29 -49 60 -103 70 -120 19 -34 94 -160 280 -475 70 -118 149 -252 176 -298 64 -110 96 -147 158 -182 95 -55 199 -35 269 52 18 24 87 121 152 217 65 96 135 191 155 211 76 76 187 100 275 59 64 -30 79 -47 333 -384 585 -778 661 -874 846 -1075 l69 -75 -1343 -3 c-739 -1 -1345 0 -1347 2 -2 2 1 115 8 250 22 428 -15 703 -124 911 -45 85 -183 221 -267 262 -108 53 -199 73 -326 73 -140 0 -205 -20 -323 -99 -56 -37 -112 -65 -161 -80 -115 -35 -254 -107 -305 -158 -24 -24 -59 -74 -76 -110 -28 -58 -31 -76 -31 -153 0 -88 12 -131 47 -160 13 -11 73 -15 269 -18 l251 -5 -60 -19 c-94 -29 -194 -48 -262 -48 -64 0 -78 -8 -69 -38 15 -44 124 -88 271 -108 174 -23 356 -18 554 17 44 7 59 6 79 -7 33 -22 62 -91 69 -166 5 -56 -8 -227 -23 -315 l-6 -33 -528 0 c-495 0 -529 1 -534 18 -2 9 -8 46 -11 82 -34 333 -269 555 -585 552 -68 0 -112 -6 -155 -21 -61 -21 -95 -26 -95 -15 0 3 14 24 31 45 17 22 79 110 138 197 59 86 163 238 231 337 68 99 175 257 238 350 204 301 230 326 387 373 133 40 185 92 295 297 87 162 129 229 186 301 43 53 122 104 187 120 67 16 71 16 143 1z m-7533 -617 c75 -38 124 -95 253 -291 210 -319 225 -342 302 -444 42 -55 114 -147 161 -205 111 -138 344 -424 351 -430 3 -3 75 -88 160 -190 85 -102 169 -201 186 -220 83 -92 203 -235 200 -238 -2 -1 -169 -3 -372 -2 -315 0 -376 3 -423 17 -77 24 -256 23 -331 0 -51 -17 -143 -18 -1269 -17 -668 0 -1217 2 -1219 4 -2 2 18 28 45 58 47 53 149 177 303 367 180 224 388 461 641 731 160 171 222 251 384 495 161 241 221 307 327 359 70 35 77 37 163 34 72 -3 100 -8 138 -28z m3678 -131 c16 -11 42 -40 59 -64 37 -54 34 -55 -106 -55 -112 0 -119 4 -87 50 28 42 76 90 91 90 8 0 27 -9 43 -21z m549 -151 c20 -33 28 -98 11 -98 -4 0 -38 14 -74 30 -37 17 -73 30 -82 30 -25 0 -17 26 13 41 77 38 107 38 132 -3z m-1076 -16 c16 -9 31 -22 32 -27 4 -12 -175 -99 -184 -90 -9 8 15 115 30 132 15 18 78 10 122 -15z m778 -23 c90 -21 242 -80 320 -124 72 -41 157 -115 227 -197 71 -83 82 -105 59 -112 -229 -70 -308 -109 -395 -196 -67 -67 -87 -110 -79 -167 8 -58 39 -101 90 -124 85 -39 133 -20 210 84 29 40 74 91 98 114 64 58 157 118 167 107 50 -53 79 -410 51 -617 -17 -124 -50 -267 -72 -312 -21 -41 -75 -105 -90 -105 -4 0 -8 19 -8 43 -1 49 -20 135 -44 191 -20 49 -20 68 4 140 25 73 26 175 4 218 -15 29 -18 30 -59 25 -32 -5 -44 -3 -49 8 -3 8 -22 19 -43 25 -34 10 -45 9 -85 -10 -52 -24 -84 -75 -74 -116 8 -29 22 -31 31 -4 4 11 18 34 32 50 20 25 32 30 69 30 31 0 46 -5 52 -17 16 -31 4 -43 -37 -37 -44 7 -58 -5 -63 -55 -2 -19 -10 -37 -18 -41 -8 -4 -37 -18 -63 -31 -69 -33 -96 -95 -64 -152 39 -71 98 -107 176 -107 47 0 111 29 111 51 0 6 7 9 16 7 40 -8 70 -202 50 -324 -15 -91 -41 -171 -63 -196 -17 -19 -39 -12 -80 25 -21 18 -310 142 -360 154 -17 4 -23 0 -28 -20 -13 -51 62 -169 128 -204 64 -33 61 -41 -11 -36 -230 16 -511 78 -651 144 -72 33 -99 53 -163 119 -57 60 -83 80 -102 80 -40 0 -246 46 -298 67 -79 31 -130 75 -174 149 -79 135 -103 221 -111 399 -9 195 21 326 114 508 129 251 354 446 606 525 156 50 223 60 414 61 132 1 179 -3 255 -20z m626 -235 c12 -4 25 -16 28 -28 6 -23 -11 -76 -23 -76 -10 1 -73 86 -73 100 0 11 33 13 68 4z m2915 -15 c157 -23 248 -68 352 -173 193 -194 251 -464 225 -1041 -6 -126 -13 -312 -17 -412 l-6 -182 -46 -3 c-38 -2 -46 -6 -46 -23 0 -14 11 -22 45 -30 l45 -11 0 -64 0 -65 -65 -5 c-57 -4 -65 -8 -65 -25 0 -17 10 -21 65 -30 l65 -10 0 -55 0 -55 -85 -5 c-73 -4 -85 -8 -88 -24 -6 -29 16 -36 101 -35 43 1 80 -1 84 -4 3 -4 6 -32 7 -64 l1 -57 -40 -8 c-96 -21 -116 -29 -113 -46 4 -19 46 -21 129 -7 l45 7 17 -52 c22 -68 21 -77 -5 -86 -13 -4 -51 -20 -85 -36 -44 -21 -63 -35 -63 -48 0 -10 4 -21 8 -24 5 -3 46 11 91 30 91 40 89 40 139 -30 l32 -45 -52 -56 c-59 -63 -82 -100 -73 -115 12 -19 43 -10 60 17 10 16 34 49 53 76 32 41 41 47 73 47 26 0 53 11 94 39 33 22 64 37 71 33 33 -19 119 -151 175 -268 22 -47 35 -64 47 -62 9 2 18 13 20 25 5 34 -82 206 -153 303 -19 25 -31 51 -27 57 13 20 221 123 237 117 22 -9 79 -135 132 -294 37 -112 50 -140 65 -140 14 0 18 8 18 33 -1 66 -83 319 -126 384 -29 46 -21 54 96 82 129 31 243 40 256 20 15 -25 27 -166 33 -394 6 -229 7 -240 26 -240 14 0 21 10 28 40 7 33 4 318 -6 555 l-2 55 55 -3 c66 -4 256 -39 282 -53 10 -5 18 -20 18 -33 0 -40 -28 -176 -60 -286 -16 -58 -30 -113 -30 -122 0 -28 35 -21 49 10 30 63 76 224 91 315 11 58 15 67 34 67 34 0 266 -130 266 -149 0 -12 -60 -126 -122 -229 -49 -83 -55 -112 -21 -112 22 0 117 139 180 263 17 32 37 35 56 7 8 -12 34 -42 58 -68 25 -26 54 -60 67 -76 l22 -28 -30 -42 c-17 -22 -53 -66 -80 -95 -55 -61 -62 -81 -26 -81 16 0 46 24 101 82 l78 82 16 -23 c29 -44 101 -184 101 -197 0 -7 -13 -20 -29 -28 -33 -17 -47 -44 -31 -60 8 -8 20 -6 41 7 42 24 58 21 71 -10 47 -117 124 -270 173 -348 52 -80 123 -155 219 -228 88 -67 88 -67 45 -175 -16 -38 -19 -56 -11 -64 17 -17 41 -2 57 37 8 19 22 51 30 70 l14 34 76 -37 c84 -41 78 -27 59 -154 -6 -43 -5 -48 13 -48 22 0 43 37 43 74 0 12 6 31 14 41 13 18 15 18 70 -4 l56 -23 0 -55 c0 -45 3 -54 17 -51 9 2 22 19 28 38 11 33 15 35 51 33 22 -1 55 -7 74 -12 84 -23 175 -40 330 -60 41 -6 182 -13 313 -17 130 -4 240 -10 242 -15 14 -21 -125 -95 -269 -143 -402 -135 -1076 -127 -1645 20 -30 7 -56 16 -58 18 -10 9 -12 53 -12 304 -1 229 -3 263 -17 269 -38 14 -40 -11 -31 -282 10 -262 -1 -550 -25 -692 l-10 -63 -223 0 c-123 0 -226 3 -228 7 -2 5 1 66 6 136 18 222 -16 453 -95 642 -26 62 -39 81 -56 83 -29 4 -28 -5 12 -107 19 -47 45 -121 57 -164 27 -92 24 -98 -61 -115 -151 -30 -228 -36 -460 -36 -232 0 -285 4 -448 35 l-52 10 6 233 c7 236 5 253 -29 241 -11 -5 -15 -50 -20 -243 -4 -130 -13 -301 -21 -379 -15 -138 -43 -334 -50 -340 -7 -7 -435 -7 -441 -1 -4 4 -2 44 5 90 48 333 49 554 3 778 -14 69 -20 93 -39 172 -8 35 -25 50 -44 38 -11 -7 -12 -16 -1 -57 34 -132 64 -293 57 -301 -21 -20 -254 213 -330 331 -271 416 -342 1033 -211 1842 83 515 93 591 101 707 10 161 -22 259 -100 307 -31 19 -40 20 -102 11 -253 -39 -559 -34 -676 12 -37 14 -26 28 23 28 46 0 170 31 249 62 106 42 230 127 230 157 0 22 -29 23 -57 2 -54 -41 -158 -54 -413 -55 -129 -1 -247 2 -262 7 -38 10 -57 92 -39 174 33 151 127 232 355 308 113 38 129 46 211 107 103 76 217 100 368 77z m-4705 -15 c12 -4 22 -10 22 -15 0 -5 -19 -33 -42 -62 -24 -29 -50 -63 -59 -77 l-16 -24 -12 23 c-7 12 -15 48 -18 78 -5 47 -3 58 12 69 20 15 74 18 113 8z m1969 -187 c-14 -18 -78 -69 -143 -113 -142 -95 -213 -158 -265 -236 -22 -32 -51 -65 -64 -74 -34 -22 -84 -11 -123 27 -26 25 -32 39 -32 73 0 36 6 48 46 89 85 88 188 145 329 183 143 38 165 45 225 72 24 12 46 19 49 17 2 -3 -8 -20 -22 -38z m-2200 -284 c-18 -51 -35 -93 -38 -93 -3 0 -21 27 -38 60 -25 46 -30 64 -22 78 11 20 112 64 123 53 3 -3 -8 -48 -25 -98z m2240 -155 c29 -27 29 -57 2 -92 -17 -21 -24 -25 -30 -14 -10 16 -12 128 -2 128 4 0 17 -10 30 -22z m-2283 -219 c3 -34 6 -75 6 -91 l0 -29 -45 31 c-25 17 -45 33 -45 35 0 2 -3 10 -6 18 -5 15 59 97 76 97 4 0 10 -28 14 -61z m3094 5 c32 -9 61 -20 65 -24 13 -11 -155 -174 -194 -189 -19 -7 -56 -21 -83 -32 -26 -10 -52 -17 -56 -14 -21 13 13 143 52 202 50 74 106 88 216 57z m504 -5 c93 -25 204 -93 260 -159 76 -88 119 -207 143 -395 9 -66 24 -148 35 -182 11 -34 20 -69 20 -77 0 -8 -18 -27 -40 -43 -41 -29 -54 -48 -44 -64 9 -15 29 -10 68 16 20 14 38 25 40 25 9 0 66 -99 66 -113 0 -10 -24 -33 -56 -53 -37 -24 -54 -41 -52 -52 5 -22 41 -18 78 8 51 36 72 31 99 -24 20 -40 22 -50 10 -56 -40 -23 -83 -56 -87 -67 -5 -18 37 -16 83 3 45 18 64 6 68 -42 2 -23 -2 -30 -20 -32 -12 -2 -27 -10 -34 -18 -18 -22 2 -37 53 -38 l42 -1 18 -58 c9 -32 20 -80 24 -107 l7 -50 -160 0 c-88 0 -162 3 -165 6 -3 3 8 31 24 63 32 62 32 101 0 101 -12 0 -25 -19 -40 -57 -44 -115 -128 -194 -251 -240 -114 -41 -109 -37 -116 -90 -10 -76 -28 -116 -64 -140 -44 -30 -113 -31 -159 -3 -44 27 -63 25 -97 -10 -16 -17 -34 -30 -41 -30 -37 0 -18 113 41 237 51 110 100 152 273 236 135 66 150 76 180 121 45 68 42 117 -7 101 -10 -3 -21 -18 -24 -33 -10 -52 -45 -79 -190 -151 -78 -38 -154 -78 -169 -87 -15 -10 -29 -16 -31 -14 -2 3 -1 79 2 169 l6 164 81 41 c100 51 184 114 184 138 0 36 -29 30 -87 -17 -83 -68 -210 -129 -388 -185 -77 -24 -245 -24 -245 0 0 6 5 10 12 10 6 0 50 18 96 41 213 103 346 249 413 454 27 84 28 84 65 91 16 3 30 7 33 9 10 11 -12 36 -44 49 -19 8 -35 20 -35 25 0 6 -9 11 -20 11 -22 0 -27 -28 -10 -60 8 -15 -2 -32 -58 -96 -101 -117 -178 -174 -342 -254 -80 -39 -152 -75 -160 -79 -8 -4 -40 -14 -70 -21 -30 -7 -68 -16 -84 -21 -48 -15 -72 -10 -100 18 -58 58 -126 260 -126 375 0 65 21 146 49 192 54 87 184 173 356 236 117 43 132 52 221 138 155 151 284 190 466 141z m-1644 -34 c6 -74 -45 -209 -97 -259 -58 -56 -174 -31 -202 42 -19 48 -5 66 86 112 55 28 104 62 138 96 28 30 57 52 62 50 6 -1 11 -20 13 -41z m317 -146 c17 -33 9 -61 -25 -79 -31 -16 -33 -13 -26 46 10 84 21 92 51 33z m-2161 -199 c14 -27 26 -52 26 -55 0 -9 -51 -5 -71 5 -21 12 -24 35 -9 74 14 37 25 32 54 -24z m-1829 -234 c86 -18 140 -45 235 -115 94 -70 139 -95 190 -106 l35 -8 -57 -19 c-44 -15 -68 -31 -103 -70 l-45 -51 -78 25 c-42 14 -95 30 -117 36 -22 6 -96 28 -165 48 -180 53 -222 49 -275 -20 -34 -45 -38 -90 -9 -94 16 -2 23 4 28 23 10 38 53 75 88 75 16 0 100 -21 186 -46 178 -52 208 -61 255 -73 64 -16 68 -21 71 -102 5 -136 86 -219 214 -219 51 0 67 5 108 33 62 41 100 98 110 167 9 54 10 55 45 58 32 3 39 -1 57 -31 13 -22 39 -44 74 -61 122 -59 175 -137 185 -269 9 -118 -41 -302 -99 -364 -66 -70 -449 21 -648 154 -72 48 -195 164 -215 204 -9 16 -10 30 -4 40 14 22 10 49 -7 49 -9 0 -28 -8 -42 -19 -15 -10 -39 -21 -54 -25 -19 -4 -28 -13 -28 -27 0 -25 22 -34 48 -20 26 14 32 5 60 -85 36 -115 133 -249 238 -329 55 -43 201 -116 274 -138 80 -25 90 -33 65 -51 -38 -28 -142 -40 -239 -27 -236 32 -534 136 -664 233 -51 38 -82 44 -82 15 0 -8 8 -22 19 -31 22 -20 130 -86 141 -86 15 0 20 -31 20 -115 0 -94 -26 -234 -63 -345 -34 -101 -106 -258 -122 -263 -6 -3 -31 3 -53 13 -37 17 -42 23 -42 52 0 18 4 47 9 64 5 17 12 58 16 92 7 62 7 62 -19 62 -20 0 -26 -5 -26 -22 0 -13 -9 -71 -21 -131 -25 -128 -27 -125 81 -174 113 -51 160 -106 160 -185 0 -41 -20 -107 -42 -139 -13 -20 -19 -22 -35 -13 -14 8 -19 26 -21 72 -3 53 -7 66 -35 95 -31 33 -40 37 -227 93 -26 8 -57 39 -63 64 -6 24 -1 69 24 215 22 132 22 137 8 145 -21 14 -36 -6 -44 -58 -3 -26 -15 -91 -26 -146 -24 -124 -24 -163 1 -204 22 -36 89 -72 172 -94 26 -6 48 -15 48 -18 0 -4 -35 -40 -77 -81 -76 -74 -171 -146 -245 -188 -21 -12 -53 -29 -70 -39 -18 -10 -82 -38 -143 -61 -60 -23 -120 -47 -133 -52 -13 -5 -32 -9 -44 -9 -16 0 -19 4 -14 23 34 111 39 140 38 242 0 131 -16 200 -73 312 -64 128 -199 264 -279 279 -27 6 -30 4 -30 -18 0 -19 8 -27 38 -37 51 -19 179 -151 219 -226 118 -223 109 -463 -23 -650 -51 -72 -92 -112 -201 -194 -131 -99 -158 -137 -151 -217 l3 -39 90 -7 c108 -9 178 -40 230 -100 39 -47 42 -56 19 -65 -12 -4 -29 8 -58 40 -44 49 -73 67 -105 67 -31 0 -26 -12 25 -54 26 -22 42 -42 37 -47 -5 -5 -108 -6 -229 -2 l-221 6 -7 120 c-3 66 -6 160 -6 208 0 85 2 93 44 176 24 49 47 102 50 118 10 46 -25 90 -123 156 -46 32 -99 72 -118 90 -53 52 -119 157 -143 229 -26 78 -35 89 -55 70 -12 -13 -11 -24 11 -88 49 -146 146 -262 298 -357 55 -34 76 -53 76 -68 0 -20 -4 -20 -127 -14 -178 9 -419 47 -603 96 -157 42 -390 126 -520 189 -127 61 -299 169 -425 266 -78 60 -275 255 -275 272 0 8 37 -5 103 -36 209 -99 471 -169 662 -177 158 -6 155 -5 155 -58 0 -59 15 -97 38 -93 14 3 17 15 18 72 2 79 4 81 89 87 l49 4 15 -85 c15 -86 23 -102 48 -93 14 6 14 25 -3 160 l-5 43 54 24 c95 42 95 42 106 -1 5 -21 16 -66 23 -101 13 -66 31 -93 49 -75 10 10 9 26 -21 201 -7 43 -6 44 47 95 59 56 129 147 183 240 19 31 37 57 40 57 3 0 31 -25 63 -55 57 -55 97 -71 97 -38 0 9 -27 44 -60 79 -33 34 -60 66 -60 72 0 12 91 131 124 161 32 30 31 31 104 -95 42 -73 62 -99 77 -99 32 0 29 31 -13 107 -22 40 -51 92 -64 116 l-23 43 25 19 c47 37 180 101 203 98 18 -2 27 -20 53 -98 18 -52 38 -121 45 -154 14 -61 34 -80 54 -53 15 21 -2 110 -46 239 -23 66 -28 93 -19 98 17 11 196 31 214 24 9 -3 20 -22 26 -42 19 -65 40 -223 40 -299 0 -65 2 -73 19 -73 10 0 22 7 25 16 9 23 6 210 -4 269 -5 28 -12 69 -16 93 l-7 42 101 0 101 0 21 -57 c12 -32 26 -94 33 -138 12 -92 22 -112 45 -93 20 17 8 142 -23 231 l-24 69 34 14 c19 8 37 14 40 14 3 0 37 -29 75 -65 72 -68 87 -75 97 -49 4 11 -14 36 -56 78 l-61 62 31 42 c34 47 33 47 117 -10 28 -19 49 -27 62 -23 35 11 21 33 -45 72 -35 21 -67 44 -70 51 -7 17 21 82 35 82 7 0 41 -8 76 -17 41 -11 67 -14 74 -7 17 17 -7 36 -76 58 l-69 23 -3 53 c-2 29 0 56 5 60 4 4 34 1 66 -7 61 -16 87 -13 87 10 0 16 -27 28 -102 47 -48 13 -48 13 -48 56 0 23 5 55 10 69 8 22 15 26 33 20 12 -3 41 -9 65 -12 37 -5 42 -3 42 14 0 14 -10 24 -30 32 -16 6 -44 16 -60 22 -34 13 -34 18 5 106 70 156 212 292 360 344 132 47 261 59 370 35z m2325 -17 c23 -6 61 -34 111 -82 117 -115 278 -180 564 -228 l71 -11 33 -120 c36 -128 51 -153 85 -143 12 3 64 12 116 20 52 8 115 19 140 25 61 15 194 27 380 35 138 7 157 6 169 -9 12 -14 11 -20 -8 -40 -25 -26 -121 -45 -256 -49 -62 -2 -70 -4 -70 -22 0 -13 10 -22 33 -29 22 -6 32 -15 32 -29 0 -38 -40 -105 -79 -130 -74 -49 -249 -92 -346 -85 -54 3 -53 2 -72 93 -6 31 -13 41 -30 43 -28 4 -29 -7 -8 -103 9 -39 20 -99 25 -135 6 -36 12 -71 15 -77 9 -25 -32 -31 -179 -24 l-150 6 3 66 c6 158 -120 272 -324 293 -33 4 -73 9 -89 12 l-28 6 3 87 c4 81 3 86 -16 86 -17 0 -21 -9 -26 -70 -4 -38 -10 -84 -14 -101 -10 -45 11 -56 123 -65 118 -9 189 -31 242 -77 55 -46 83 -104 83 -169 0 -78 -11 -86 -109 -81 -63 2 -87 7 -103 22 -18 16 -39 19 -183 20 -128 1 -173 6 -208 19 -68 27 -118 66 -147 114 -32 55 -41 168 -24 297 13 93 6 121 -23 97 -20 -17 -40 -169 -33 -268 6 -107 39 -178 105 -228 25 -20 56 -38 69 -41 13 -4 23 -10 23 -14 0 -10 -68 -21 -95 -16 -11 3 -78 5 -149 5 -128 1 -128 1 -123 24 2 12 21 78 40 147 20 69 54 195 77 280 71 269 207 640 242 661 12 8 45 4 108 -12z m1154 -214 c-1 -6 -13 -16 -28 -23 -24 -12 -35 -11 -78 3 -27 9 -64 26 -82 37 -35 23 -78 77 -70 89 6 10 259 -94 258 -106z m5213 15 c61 -69 215 -290 253 -363 23 -45 40 -93 40 -111 0 -45 -50 -141 -107 -203 l-48 -53 -72 19 c-106 29 -209 41 -348 41 l-123 0 -22 48 c-70 148 -83 207 -55 266 27 57 403 386 442 386 7 0 25 -14 40 -30z m-8047 -53 c46 -23 90 -75 90 -108 0 -15 -8 -19 -35 -19 -25 0 -35 4 -35 16 0 20 -104 124 -125 124 -9 0 -13 5 -10 11 9 13 58 3 115 -24z m4414 8 c-4 -8 -8 -15 -10 -15 -2 0 -4 7 -4 15 0 8 4 15 10 15 5 0 7 -7 4 -15z m-4079 -48 c56 -56 68 -150 27 -219 -20 -34 -51 -36 -80 -5 l-22 24 20 18 c26 23 25 55 -1 89 -24 31 -40 33 -64 6 -13 -14 -16 -28 -11 -50 5 -28 3 -31 -17 -28 -19 3 -22 10 -25 57 -5 94 29 141 101 141 31 0 46 -7 72 -33z m4055 5 c0 -10 -13 -31 -30 -47 -24 -23 -32 -26 -45 -15 -23 19 -18 33 23 57 46 27 52 28 52 5z m-4492 -19 c100 -65 107 -199 15 -290 -41 -41 -45 -43 -103 -43 -75 0 -121 27 -150 87 -77 164 93 340 238 246z m4382 -78 c10 -13 10 -19 -4 -34 -17 -19 -56 -35 -56 -23 0 3 5 21 12 39 13 36 28 42 48 18z m-109 -8 c-1 -4 -1 -16 -1 -27 0 -23 -26 -26 -53 -6 -17 13 -17 15 10 29 29 15 45 17 44 4z m-70 -83 c56 -18 61 -30 22 -45 -16 -5 -49 -21 -75 -34 l-48 -23 0 52 c0 29 3 56 7 59 10 11 41 8 94 -9z m-151 -33 c0 -27 -24 -43 -54 -35 -14 3 -26 10 -26 15 0 5 0 12 -1 17 0 7 35 19 64 21 10 1 17 -6 17 -18z m3120 -61 c123 -46 119 -45 190 -79 110 -53 118 -65 127 -184 6 -92 5 -94 -62 -116 -67 -23 -165 -72 -269 -134 l-98 -59 -68 47 c-38 25 -75 57 -84 70 -18 27 -21 82 -7 117 5 13 28 84 51 158 70 227 75 235 114 220 12 -5 59 -23 106 -40z m-2659 -222 c4 -47 -5 -144 -15 -151 -6 -4 -69 -6 -141 -4 -106 3 -137 8 -165 24 -45 25 -117 43 -174 43 -25 0 -46 4 -46 8 0 5 19 19 42 32 39 22 52 23 222 24 140 1 190 5 221 18 51 20 55 21 56 6z m4697 -242 c3 -199 -7 -286 -36 -325 -29 -39 -139 -91 -195 -91 -19 0 -31 8 -42 30 -37 72 -182 223 -282 294 -53 37 -54 40 -48 74 7 39 56 148 77 172 30 35 60 39 293 37 l230 -2 3 -189z m-9591 32 c-3 -8 -6 -5 -6 6 -1 11 2 17 5 13 3 -3 4 -12 1 -19z m81 -45 c2 -8 -6 -13 -22 -13 -17 0 -26 5 -26 16 0 19 41 16 48 -3z m65 -94 c3 -11 3 -27 0 -36 -4 -11 -10 -10 -29 8 -18 17 -21 25 -13 36 17 19 36 16 42 -8z m98 11 c10 -6 19 -17 19 -25 0 -20 -46 -19 -54 1 -13 35 -2 43 35 24z m183 -66 c20 -8 20 -28 0 -45 -14 -11 -19 -9 -34 11 -26 35 -10 51 34 34z m-94 -44 c7 -22 11 -42 8 -45 -6 -6 -97 38 -98 47 0 9 50 37 66 38 6 0 17 -18 24 -40z m270 0 c13 -8 12 -13 -8 -32 -23 -23 -23 -23 -38 -4 -8 11 -14 26 -14 33 0 15 38 17 60 3z m-91 -66 c7 -19 11 -37 9 -39 -6 -7 -92 21 -95 31 -3 9 44 41 62 43 6 1 17 -15 24 -35z m4308 -66 c22 -20 33 -78 15 -78 -4 0 -23 15 -41 34 -50 52 -26 93 26 44z m-3291 -151 c-3 -12 -5 -192 -5 -399 -1 -314 -3 -378 -15 -378 -27 0 -105 51 -146 96 -66 71 -92 141 -92 246 0 102 20 165 86 263 48 73 136 187 150 197 16 11 26 -1 22 -25z m8149 -192 c17 -7 58 -23 92 -36 90 -31 92 -35 59 -132 -44 -131 -58 -157 -87 -173 -36 -18 -73 -18 -89 1 -7 8 -41 73 -76 145 -62 127 -63 132 -49 160 29 57 77 68 150 35z m370 -432 c18 -47 35 -185 25 -203 -12 -22 -41 -40 -65 -40 -18 0 -112 66 -162 113 -64 60 -34 114 73 133 99 17 121 17 129 -3z m-8865 -13 c0 -5 -29 -96 -64 -202 -35 -106 -109 -333 -165 -505 l-102 -312 -47 -14 c-26 -8 -112 -34 -192 -57 -80 -23 -202 -59 -271 -81 -155 -48 -172 -49 -163 -11 4 15 10 34 14 42 5 8 24 62 44 120 19 58 54 157 76 220 23 63 54 153 70 200 16 47 47 137 70 200 56 157 80 230 80 247 0 16 -6 14 145 49 66 15 197 46 290 69 179 45 215 51 215 35z m-707 -170 c0 -8 -15 -53 -33 -100 -17 -47 -36 -96 -40 -110 -5 -14 -32 -90 -60 -170 -28 -80 -68 -197 -90 -260 -21 -63 -53 -153 -70 -200 -17 -47 -38 -105 -47 -130 -21 -63 -32 -80 -48 -80 -25 0 -25 17 1 92 14 40 33 98 44 128 10 30 33 93 50 140 17 47 40 110 50 140 10 30 42 120 70 200 29 80 55 156 60 170 11 35 48 128 67 168 16 33 50 42 46 12z m9805 -116 c-3 -78 -3 -79 -28 -76 -45 7 -51 19 -29 69 10 24 19 52 19 62 0 22 21 44 32 33 5 -5 8 -44 6 -88z m190 -40 c13 -45 16 -97 6 -107 -4 -3 -19 0 -34 8 l-27 14 16 70 c9 39 18 67 22 63 3 -4 11 -26 17 -48z m-3435 -51 c35 -32 85 -74 110 -93 26 -19 50 -46 53 -59 12 -43 -23 -512 -39 -538 -12 -19 -236 -18 -243 1 -3 8 4 88 16 178 12 89 24 254 27 366 3 111 7 202 9 202 2 0 32 -26 67 -57z m3657 -80 c0 -18 -6 -23 -25 -23 -28 0 -29 4 -13 50 10 31 12 32 25 15 7 -11 13 -29 13 -42z m-1876 -259 c8 -21 8 -293 0 -333 l-7 -32 -115 3 -116 3 -1 95 c-1 52 -6 128 -10 168 l-8 72 29 0 c16 1 67 9 114 19 110 24 107 24 114 5z m-8734 -261 c0 -32 -44 -132 -60 -135 -8 -2 -195 -1 -415 2 -446 6 -439 4 -195 60 52 13 151 37 220 55 114 29 139 32 288 34 147 1 162 -1 162 -16z m-72 -198 c3 -2 2 -16 -2 -30 l-6 -25 -479 0 c-423 0 -481 2 -495 16 -16 16 -21 36 -10 47 6 6 986 -2 992 -8z" fill="#00b894"/>
<path d="M8345 5114 c-26 -19 -102 -62 -168 -94 -153 -73 -204 -112 -259 -197 -78 -119 -108 -252 -73 -319 37 -72 165 -99 231 -49 44 34 51 49 64 136 18 119 56 187 161 291 121 120 165 211 121 251 -24 22 -23 23 -77 -19z m4 -107 c-19 -23 -57 -64 -86 -91 -100 -92 -150 -188 -173 -332 -13 -80 -44 -108 -112 -102 -111 11 -128 90 -53 256 42 94 118 160 260 227 64 30 133 66 153 80 48 33 53 15 11 -38z" fill="#00b894"/>
<path d="M8059 4327 c-19 -12 -42 -40 -52 -61 -17 -36 -17 -40 -2 -55 16 -15 18 -14 28 4 7 11 27 35 45 54 30 31 36 33 79 28 55 -6 86 -35 103 -97 12 -46 23 -55 40 -35 27 33 -15 130 -72 165 -47 28 -125 27 -169 -3z" fill="#00b894"/>
<path d="M8130 4232 c-39 -32 -25 -112 21 -112 49 0 67 88 23 117 -19 12 -24 11 -44 -5z" fill="#00b894"/>
<path d="M7695 3991 c-102 -63 -110 -177 -19 -261 38 -35 49 -40 93 -40 92 0 151 43 166 121 9 49 -14 100 -61 135 -22 16 -41 32 -44 35 -26 32 -92 37 -135 10z m101 -35 c18 -14 18 -16 -16 -44 -31 -27 -35 -35 -34 -76 1 -33 7 -53 23 -70 29 -31 12 -42 -31 -20 -47 23 -68 53 -68 99 0 47 19 79 64 106 37 23 37 23 62 5z m76 -73 c24 -22 23 -74 -2 -101 -28 -30 -47 -28 -66 9 -17 34 -13 69 12 93 20 20 33 20 56 -1z" fill="#00b894"/>
<path d="M8607 3773 c-25 -25 25 -102 57 -90 23 9 19 50 -7 75 -24 23 -39 27 -50 15z" fill="#00b894"/>
<path d="M11688 4963 c-49 -25 -80 -77 -82 -135 -1 -46 2 -53 18 -53 13 0 22 9 26 26 23 84 70 129 137 129 42 0 91 -35 109 -77 26 -60 29 -66 39 -66 32 0 24 89 -12 129 -44 49 -79 64 -145 63 -34 -1 -75 -8 -90 -16z" fill="#00b894"/>
<path d="M11741 4847 c-32 -39 -17 -112 25 -128 51 -18 94 65 60 116 -18 28 -66 34 -85 12z" fill="#00b894"/>
<path d="M11184 4698 c-43 -20 -68 -98 -31 -98 18 0 77 62 77 82 0 21 -20 28 -46 16z" fill="#00b894"/>
<path d="M10305 4073 c-62 -33 -96 -76 -108 -141 -8 -38 7 -82 27 -82 15 0 20 12 31 73 4 24 19 50 41 72 31 31 41 35 87 35 70 0 108 -25 138 -89 22 -51 44 -65 55 -36 8 19 -12 70 -43 113 -49 65 -158 92 -228 55z" fill="#00b894"/>
<path d="M10346 3948 c-24 -34 -20 -85 9 -113 13 -14 30 -25 37 -25 26 1 50 29 55 67 9 72 -64 124 -101 71z" fill="#00b894"/>
<path d="M9626 3621 c-21 -23 -33 -95 -18 -105 14 -8 42 3 42 18 0 6 11 24 25 40 14 17 24 37 23 45 -5 24 -51 25 -72 2z" fill="#00b894"/>
<path d="M6102 2858 c-18 -18 -14 -29 28 -78 37 -42 41 -44 57 -28 15 16 15 20 -2 58 -24 54 -58 73 -83 48z" fill="#00b894"/>
<path d="M5665 3159 c-15 -28 -15 -33 0 -55 32 -49 107 -9 89 48 -15 49 -66 53 -89 7z" fill="#00b894"/>
<path d="M6073 938 c-49 -54 -59 -132 -22 -169 31 -31 105 -22 135 17 27 34 38 83 25 117 -22 56 -100 76 -138 35z m87 -78 c0 -32 -31 -63 -57 -58 -22 4 -29 43 -12 74 23 44 69 34 69 -16z" fill="#00b894"/>
<path d="M7129 2363 c-12 -13 -13 -124 -10 -652 2 -350 5 -639 8 -643 2 -5 204 -8 449 -8 429 0 444 1 444 19 0 17 -11 19 -132 25 -73 4 -263 5 -421 3 -231 -2 -290 0 -299 10 -14 17 -5 1190 9 1204 5 5 369 8 914 7 l904 -3 3 -301 c2 -312 5 -327 42 -304 12 7 14 66 11 322 -2 197 -7 318 -13 326 -8 9 -211 12 -953 12 -865 0 -944 -1 -956 -17z" fill="#00b894"/>
<path d="M10978 2309 c-10 -5 -18 -17 -18 -24 0 -13 29 -15 174 -15 107 0 177 -4 181 -10 3 -6 3 -20 0 -31 -7 -21 -11 -21 -164 -17 -86 3 -164 8 -173 13 -15 6 -18 2 -18 -24 l0 -31 194 0 195 0 -2 68 c-1 37 -6 70 -12 74 -16 12 -338 9 -357 -3z" fill="#00b894"/>
<path d="M7257 2224 c-12 -12 -8 -119 6 -137 11 -16 32 -17 202 -15 l190 3 9 27 c6 17 6 45 0 75 l-9 48 -196 3 c-107 1 -198 -1 -202 -4z m319 -44 c24 0 34 -5 39 -20 14 -45 -7 -51 -164 -48 l-146 3 -3 32 c-3 29 0 32 30 36 18 3 73 3 122 1 49 -2 104 -4 122 -4z" fill="#00b894"/>
<path d="M7746 2215 c-3 -10 -1 -24 6 -33 11 -13 56 -14 368 -9 195 4 397 7 448 7 85 0 92 1 92 20 0 20 -7 20 -342 20 -189 0 -393 3 -454 6 -100 6 -111 5 -118 -11z" fill="#00b894"/>
<path d="M7743 2113 c-3 -7 -2 -17 2 -23 4 -7 155 -10 461 -10 401 0 454 2 454 15 0 9 -6 18 -12 20 -7 2 -213 6 -457 7 -338 2 -445 0 -448 -9z" fill="#00b894"/>
<path d="M10597 2103 c-4 -3 -7 -12 -7 -20 0 -10 38 -13 185 -13 178 0 185 1 185 20 0 19 -7 20 -178 20 -98 0 -182 -3 -185 -7z" fill="#00b894"/>
<path d="M11032 2093 c3 -16 19 -18 147 -21 138 -2 171 3 171 29 0 5 -72 9 -161 9 -147 0 -160 -1 -157 -17z" fill="#00b894"/>
<path d="M9315 2028 c-42 -138 -65 -240 -55 -258 22 -41 29 -29 74 119 30 97 33 136 10 145 -22 8 -24 8 -29 -6z" fill="#00b894"/>
<path d="M7894 2015 c-3 -8 -3 -19 1 -25 7 -11 720 -15 749 -4 9 3 16 12 16 19 0 7 -7 16 -16 19 -9 3 -180 6 -380 6 -310 0 -365 -2 -370 -15z" fill="#00b894"/>
<path d="M10324 1845 c0 -101 -3 -188 -7 -191 -4 -4 -44 -9 -89 -11 -105 -5 -114 -8 -98 -28 11 -13 34 -15 124 -13 l111 3 3 190 c3 208 0 235 -26 235 -15 0 -17 -16 -18 -185z" fill="#00b894"/>
<path d="M8775 2010 c-6 -10 -1 -37 15 -75 29 -70 50 -129 50 -140 0 -7 7 -18 16 -25 12 -11 18 -11 30 2 12 12 13 20 3 44 -16 40 -23 59 -52 134 -23 61 -47 84 -62 60z" fill="#00b894"/>
<path d="M7372 1988 c-8 -8 -12 -49 -12 -120 0 -129 -15 -120 185 -116 l140 3 3 110 c2 95 0 111 -15 122 -23 18 -284 18 -301 1z m268 -112 c0 -50 -4 -75 -12 -78 -18 -7 -196 0 -208 7 -6 3 -10 37 -10 76 l0 69 115 0 115 0 0 -74z" fill="#00b894"/>
<path d="M7267 1983 c-9 -8 -9 -186 -1 -207 3 -9 15 -16 25 -16 18 0 19 9 19 115 0 105 -2 115 -18 115 -10 0 -22 -3 -25 -7z" fill="#00b894"/>
<path d="M7747 1983 c-11 -10 -8 -192 3 -213 6 -11 17 -17 25 -14 12 5 15 29 15 120 0 104 -2 114 -18 114 -10 0 -22 -3 -25 -7z" fill="#00b894"/>
<path d="M9797 1983 c-4 -3 -7 -64 -7 -134 0 -128 4 -143 38 -132 13 5 18 206 6 251 -6 21 -24 29 -37 15z" fill="#00b894"/>
<path d="M10463 1935 c-3 -9 -4 -18 -2 -20 2 -2 199 -7 437 -11 427 -7 432 -7 432 13 0 19 -9 20 -142 26 -79 4 -273 7 -431 7 -250 0 -288 -2 -294 -15z" fill="#00b894"/>
<path d="M10462 1833 c3 -17 31 -18 438 -18 380 0 435 2 435 15 0 13 -57 15 -438 18 -414 2 -438 1 -435 -15z" fill="#00b894"/>
<path d="M10463 1744 c-3 -8 -1 -20 4 -25 5 -5 179 -8 439 -7 421 3 429 3 429 23 0 20 -8 20 -433 23 -386 2 -433 1 -439 -14z" fill="#00b894"/>
<path d="M7328 1693 c-20 -2 -42 -11 -49 -19 -11 -14 -19 -119 -9 -134 3 -4 57 -10 122 -14 112 -7 116 -7 123 14 4 11 3 35 -1 53 -6 30 -8 30 -16 11 -8 -18 -22 -22 -76 -27 -37 -4 -77 -9 -89 -13 -22 -6 -23 -3 -23 40 0 45 0 46 33 46 19 0 37 -3 41 -7 4 -5 34 -8 67 -8 57 0 59 1 59 26 0 19 -6 28 -22 33 -24 6 -96 6 -160 -1z" fill="#00b894"/>
<path d="M7584 1653 c-4 -20 -3 -57 2 -82 l9 -46 93 -3 c103 -3 98 -7 105 75 9 93 9 93 -104 93 l-98 0 -7 -37z m157 -13 c23 -13 25 -55 3 -64 -9 -3 -38 -6 -65 -6 -49 0 -49 0 -49 33 0 19 3 37 7 40 10 11 82 8 104 -3z" fill="#00b894"/>
<path d="M8073 1627 l-36 -34 12 -204 c11 -198 19 -298 41 -579 6 -74 13 -184 17 -245 6 -118 18 -155 59 -181 23 -16 56 -17 336 -11 180 4 316 11 321 16 6 6 12 99 15 208 3 130 9 201 16 205 16 11 408 9 425 -1 12 -8 16 -52 23 -207 4 -109 10 -204 12 -211 5 -11 62 -13 320 -11 l315 3 30 29 c35 33 37 46 51 256 6 85 15 209 20 275 6 66 17 215 25 330 8 116 17 226 20 246 8 47 -15 102 -51 126 -27 17 -78 18 -981 21 l-953 3 -37 -34z" fill="#00b894"/>
<path d="M10635 1649 c-4 -6 -3 -15 2 -20 5 -5 152 -8 354 -7 298 3 344 5 344 18 0 13 -46 15 -347 18 -244 1 -349 -1 -353 -9z" fill="#00b894"/>
<path d="M10698 1553 c-24 -30 6 -33 317 -33 262 0 314 2 318 14 14 35 -16 38 -324 35 -218 -3 -303 -7 -311 -16z" fill="#00b894"/>
<path d="M10195 1502 c-35 -5 -50 -12 -50 -22 0 -13 31 -15 208 -18 l207 -2 0 -90 0 -90 -214 0 c-191 0 -215 -2 -220 -17 -4 -9 -1 -20 6 -25 7 -4 113 -8 236 -8 203 0 223 2 230 18 8 21 9 238 1 246 -9 9 -346 15 -404 8z" fill="#00b894"/>
<path d="M10694 1459 c-3 -6 -2 -15 3 -20 5 -5 140 -8 324 -7 290 3 314 4 317 21 3 16 -17 17 -317 17 -219 0 -322 -3 -327 -11z" fill="#00b894"/>
<path d="M7277 1454 c-4 -4 -7 -13 -7 -21 0 -10 28 -13 126 -13 114 0 125 2 122 18 -3 15 -18 17 -119 20 -63 1 -118 -1 -122 -4z" fill="#00b894"/>
<path d="M7594 1445 c-14 -34 4 -38 197 -33 104 2 192 7 195 11 4 3 4 13 1 22 -9 22 -385 23 -393 0z" fill="#00b894"/>
<path d="M10683 1365 c-3 -9 -4 -17 -2 -19 10 -8 636 -14 648 -7 8 5 11 16 8 25 -6 14 -42 16 -327 16 -280 0 -321 -2 -327 -15z" fill="#00b894"/>
<path d="M7274 1355 c-3 -8 -3 -19 1 -25 10 -16 699 -14 714 3 27 34 -6 37 -361 37 -296 0 -349 -2 -354 -15z" fill="#00b894"/>
<path d="M7274 1265 c-13 -33 6 -35 285 -35 316 0 431 7 431 25 0 7 -10 15 -22 19 -13 3 -173 6 -356 6 -282 0 -333 -2 -338 -15z" fill="#00b894"/>
<path d="M10710 1260 c0 -20 5 -20 312 -18 289 3 313 4 316 21 3 16 -17 17 -312 17 -310 0 -316 0 -316 -20z" fill="#00b894"/>
<path d="M10391 966 c-7 -9 -11 -23 -7 -31 8 -23 354 -22 363 1 12 31 -15 37 -180 41 -138 3 -166 2 -176 -11z" fill="#00b894"/>
<path d="M7885 947 c-16 -13 -17 -17 -6 -31 10 -12 31 -16 82 -16 62 0 69 2 69 19 0 25 -4 28 -70 36 -41 5 -60 3 -75 -8z" fill="#00b894"/>
<path d="M8887 753 c-4 -3 -7 -108 -7 -233 0 -125 -3 -255 -6 -289 l-7 -61 -107 0 c-119 0 -161 -10 -203 -49 -40 -37 -52 -61 -36 -72 21 -13 1096 -12 1104 1 8 13 -37 74 -73 98 -20 13 -56 18 -151 22 l-126 5 -7 145 c-5 80 -11 211 -14 293 l-6 147 -177 0 c-98 0 -181 -3 -184 -7z" fill="#00b894"/>
</g>
</svg>