<svg version="1.0" xmlns="http://www.w3.org/2000/svg" width="2048.000000pt" height="2048.000000pt" viewBox="0 0 2048.000000 2048.000000" preserveAspectRatio="xMidYMid meet">

<g transform="translate(0.000000,2048.000000) scale(0.100000,-0.100000)" fill="#00b894" stroke="none">
<path d="M10678 15204 c-206 -32 -356 -79 -456 -143 -32 -21 -133 -110 -224 -197 -98 -94 -194 -177 -237 -204 -328 -205 -439 -289 -593 -446 -162 -165 -260 -313 -304 -459 -29 -93 -25 -244 9 -368 51 -187 147 -353 233 -403 41 -24 52 -26 115 -21 l70 6 67 -54 c37 -30 74 -54 82 -52 11 2 16 21 20 77 5 73 6 75 32 78 18 2 51 -11 98 -39 39 -23 73 -40 75 -37 3 3 8 40 12 82 4 54 11 80 20 83 8 3 50 -13 94 -36 43 -23 84 -39 89 -36 7 4 8 28 4 65 -8 75 0 110 26 110 12 0 47 -11 80 -25 91 -38 90 -39 83 65 -7 108 -4 111 85 75 35 -14 67 -23 71 -20 5 2 6 43 4 90 -7 103 0 108 91 76 33 -11 65 -21 70 -21 5 0 6 39 2 89 l-7 90 34 25 c48 36 143 78 192 84 37 4 44 1 63 -23 56 -71 1 -278 -103 -393 l-40 -44 -64 17 c-35 9 -65 14 -67 12 -3 -2 1 -36 7 -75 18 -111 7 -120 -97 -78 -32 14 -63 21 -67 17 -5 -5 -4 -26 2 -47 20 -80 18 -115 -9 -135 -25 -19 -26 -19 -98 12 -41 17 -77 28 -80 24 -3 -3 -1 -37 6 -76 17 -97 17 -95 -32 -124 l-43 -25 -58 35 c-33 19 -67 35 -76 35 -18 0 -16 -12 17 -146 4 -17 -7 -28 -71 -65 -110 -64 -111 -102 -1 -175 69 -46 132 -64 221 -64 130 0 230 44 498 218 156 102 306 191 552 327 207 114 269 158 381 270 108 107 162 188 210 313 15 40 31 69 36 64 11 -11 -13 -137 -42 -222 -63 -184 -173 -314 -385 -458 -33 -22 -72 -46 -87 -53 l-27 -12 38 -46 c131 -157 166 -412 124 -887 l-17 -192 -55 -27 c-113 -57 -353 -165 -365 -165 -6 0 -75 26 -151 59 -77 32 -146 60 -153 62 -10 4 -13 67 -12 309 0 252 -2 309 -14 325 -14 20 -32 20 -2033 17 l-2018 -4 -120 -38 c-66 -21 -311 -100 -545 -176 -234 -75 -507 -162 -607 -194 -100 -31 -188 -62 -197 -69 -15 -12 -16 -295 -16 -3132 0 -2669 2 -3120 14 -3132 8 -7 101 -31 208 -51 106 -21 297 -60 423 -88 127 -27 304 -64 395 -83 91 -19 229 -48 308 -65 l143 -30 2017 0 c1556 0 2021 3 2030 12 9 9 12 617 12 2676 l0 2664 -47 -6 c-27 -4 -56 -9 -65 -12 -17 -5 -18 -138 -18 -2610 l0 -2604 -1910 0 -1910 0 0 3410 0 3410 1910 0 1910 0 2 -517 3 -518 50 -27 c28 -15 53 -28 58 -28 4 0 7 39 7 88 0 48 4 92 8 99 5 8 28 -2 77 -34 107 -69 203 -113 250 -113 22 0 105 16 185 35 80 20 157 38 173 42 l27 6 0 -67 c0 -36 4 -66 8 -66 14 0 122 78 207 150 44 37 140 126 214 199 73 72 136 129 140 126 9 -9 -46 -108 -102 -183 -67 -90 -107 -134 -259 -288 l-129 -131 -257 -9 c-381 -13 -471 -12 -507 7 -16 9 -78 41 -136 73 -58 31 -139 68 -180 82 -73 26 -262 54 -275 41 -11 -10 13 -34 119 -115 l99 -76 -110 -27 c-113 -28 -197 -62 -242 -98 -14 -11 -22 -23 -18 -26 4 -4 67 -11 140 -15 120 -8 166 -13 205 -26 8 -2 -5 -22 -31 -49 -87 -89 -167 -208 -151 -223 3 -4 61 22 128 55 157 79 184 90 290 114 116 26 141 25 283 -4 284 -60 527 -90 681 -85 99 3 114 6 175 36 75 37 256 163 432 301 121 94 146 111 146 94 0 -6 -64 -76 -141 -157 -154 -160 -314 -295 -412 -347 -56 -30 -71 -33 -169 -37 l-108 -5 0 -26 c0 -49 52 -327 86 -459 153 -593 508 -1160 949 -1515 l100 -80 7 128 c23 436 167 885 383 1188 68 96 270 307 294 307 14 0 14 -27 0 -36 -6 -4 -47 -61 -91 -128 -139 -211 -266 -496 -322 -726 -37 -153 -74 -372 -87 -523 -14 -161 -6 -452 16 -557 70 -336 262 -670 696 -1211 67 -83 146 -185 176 -227 52 -73 54 -78 48 -122 -9 -66 -50 -242 -80 -345 -49 -170 -162 -434 -198 -463 -20 -17 -127 -38 -291 -57 -181 -20 -223 -40 -350 -163 -60 -59 -146 -171 -146 -191 0 -8 156 -11 573 -11 l574 0 20 23 c31 33 36 46 111 268 73 214 204 562 318 839 45 109 67 178 67 205 0 22 -15 90 -34 150 -34 110 -34 110 -31 290 4 336 -34 569 -122 748 l-43 87 108 86 c128 100 278 246 368 359 149 185 308 463 376 658 15 42 32 77 36 77 13 0 12 -5 -26 -157 -101 -403 -303 -750 -614 -1058 -50 -49 -91 -93 -91 -96 0 -11 139 -66 395 -156 724 -255 1398 -415 1995 -474 270 -27 824 -33 1045 -11 371 37 728 116 988 218 206 81 464 227 555 314 62 59 43 66 -110 40 -357 -60 -762 -78 -1023 -45 -463 57 -869 182 -1280 394 -715 368 -1217 876 -1579 1599 -72 145 -172 366 -286 632 -154 360 -335 741 -454 954 -257 462 -476 730 -991 1209 -292 271 -401 394 -517 582 -113 182 -170 314 -294 678 -121 352 -182 506 -275 686 -100 195 -185 316 -319 452 -155 157 -324 261 -545 335 -210 70 -502 94 -727 58z m-210 -624 c64 -39 88 -110 57 -170 -23 -45 -62 -70 -111 -70 -107 0 -158 135 -82 218 43 45 86 53 136 22z m-1288 -855 c11 -13 9 -26 -15 -75 -15 -32 -38 -71 -50 -86 l-23 -28 -21 34 c-44 70 -6 170 65 170 17 0 37 -7 44 -15z" fill="#00b894"/>
<path d="M6862 11848 c-19 -19 -17 -5681 2 -5697 10 -8 456 -10 1677 -9 l1664 3 3 2173 c2 1734 0 2172 -10 2172 -7 -1 -49 -16 -93 -34 l-80 -32 -5 -216 -5 -217 -30 -32 c-59 -63 34 -59 -1460 -59 -1512 0 -1411 -5 -1459 66 l-26 39 0 255 c0 237 1 257 20 288 11 18 34 41 52 52 33 20 54 20 1440 20 l1406 0 11 31 c6 18 11 34 11 36 0 7 -54 24 -143 43 -88 19 -131 20 -1399 20 l-1309 0 -42 39 -42 40 0 281 0 282 37 33 36 33 1394 4 c1242 4 1397 2 1427 -12 52 -23 75 -61 81 -133 l5 -62 75 -12 c41 -6 83 -12 93 -12 16 -1 17 20 17 302 0 222 -3 306 -12 315 -17 17 -3319 17 -3336 0z m3222 -117 c3 -5 3 -58 -1 -119 l-6 -111 -39 33 c-21 19 -58 39 -81 45 -31 9 -402 11 -1447 9 l-1405 -3 -40 -21 c-22 -12 -49 -32 -60 -44 -18 -20 -20 -20 -26 -3 -9 22 -11 186 -3 207 6 15 152 16 1554 16 878 0 1551 -4 1554 -9z m-3077 -1023 l23 -22 -22 -23 c-31 -33 -38 -29 -38 22 0 25 3 45 7 45 4 0 17 -10 30 -22z m3079 -905 c-2 -3 -18 5 -35 18 l-31 23 33 27 32 27 3 -45 c2 -25 1 -47 -2 -50z m-3086 67 c24 -24 25 -28 3 -52 -25 -28 -33 -22 -33 27 0 25 2 45 5 45 3 0 14 -9 25 -20z m2929 -104 c15 -8 42 -31 60 -51 l32 -37 -3 -263 -3 -264 -35 -36 c-19 -19 -51 -40 -71 -45 -24 -7 -521 -9 -1406 -8 -1313 3 -1369 4 -1395 22 -15 10 -37 33 -48 51 -19 30 -20 49 -20 284 0 269 2 283 52 327 12 12 30 24 38 27 8 3 635 6 1393 6 1185 1 1382 -1 1406 -13z m159 -790 l-3 -24 -30 24 -30 24 30 24 30 24 3 -24 c2 -13 2 -35 0 -48z m-3058 23 c0 -3 -11 -16 -25 -29 l-25 -23 0 47 0 47 25 -18 c13 -10 25 -21 25 -24z m2863 -68 c37 -6 58 -17 85 -45 l37 -36 3 -269 3 -268 -28 -33 c-53 -64 38 -60 -1470 -60 -1357 0 -1378 0 -1411 20 -18 11 -41 34 -52 52 -19 31 -20 47 -18 295 l3 263 38 37 37 38 473 5 c790 9 2249 9 2300 1z m192 -819 c-3 -3 -17 6 -32 20 l-26 26 29 25 29 25 3 -45 c2 -25 1 -48 -3 -51z m-3078 66 l23 -22 -22 -23 c-31 -33 -38 -29 -38 22 0 25 3 45 7 45 4 0 17 -10 30 -22z m2969 -140 l44 -47 0 -260 0 -259 -26 -32 c-55 -64 53 -60 -1470 -60 -1373 0 -1387 0 -1419 20 -61 37 -65 60 -65 335 0 262 2 277 52 321 12 12 30 24 38 27 8 3 642 5 1408 4 l1393 -2 45 -47z m112 -747 l-3 -29 -30 23 -29 24 29 31 30 32 3 -26 c2 -14 2 -39 0 -55z m-3079 3 c-32 -34 -39 -30 -39 22 l0 45 31 -21 30 -22 -22 -24z m2941 -69 c70 -52 70 -52 70 -335 0 -237 -1 -257 -20 -288 -11 -18 -34 -41 -52 -52 -33 -20 -54 -20 -1418 -20 -1364 0 -1385 0 -1418 20 -18 11 -41 34 -52 52 -19 31 -20 51 -20 288 0 237 1 257 20 288 11 18 34 41 52 52 33 20 54 20 1419 20 l1385 0 34 -25z m135 -851 l-7 -114 -1549 0 -1549 0 0 122 0 122 28 -26 c15 -14 43 -34 62 -44 34 -18 92 -19 1445 -22 945 -2 1422 0 1445 7 19 6 55 28 80 50 25 21 47 35 49 29 2 -5 0 -61 -4 -124z" fill="#00b894"/>
<path d="M8850 9605 l0 -55 499 0 c553 0 514 -5 504 69 l-6 41 -498 0 -499 0 0 -55z" fill="#00b894"/>
<path d="M7220 9420 l0 -230 60 0 60 0 0 230 0 230 -60 0 -60 0 0 -230z" fill="#00b894"/>
<path d="M7437 9636 c-3 -7 -3 -111 0 -230 l6 -216 59 0 58 0 0 230 0 230 -59 0 c-40 0 -60 -4 -64 -14z" fill="#00b894"/>
<path d="M7656 9619 c-8 -41 -8 -289 0 -368 l7 -62 56 3 56 3 3 228 2 227 -59 0 c-58 0 -59 0 -65 -31z" fill="#00b894"/>
<path d="M7870 9420 l0 -230 60 0 c51 0 60 3 60 18 0 9 1 112 2 227 l3 210 -62 3 -63 3 0 -231z" fill="#00b894"/>
<path d="M8900 9472 c-51 -4 -60 -13 -60 -63 l0 -36 107 -6 c137 -9 591 -9 767 0 l137 6 -3 51 -3 51 -450 1 c-247 0 -470 -1 -495 -4z" fill="#00b894"/>
<path d="M8844 9276 c-3 -8 -4 -31 -2 -52 l3 -39 505 0 505 0 0 50 0 50 -503 3 c-424 2 -503 0 -508 -12z" fill="#00b894"/>
<path d="M8847 8813 c-4 -3 -7 -28 -7 -55 l0 -48 511 0 510 0 -3 53 -3 52 -501 3 c-275 1 -504 -1 -507 -5z" fill="#00b894"/>
<path d="M7220 8580 l0 -230 60 0 60 0 0 230 0 230 -60 0 -60 0 0 -230z" fill="#00b894"/>
<path d="M7440 8580 l0 -230 60 0 60 0 -2 228 -3 227 -57 3 -58 3 0 -231z" fill="#00b894"/>
<path d="M7656 8773 c-8 -49 -8 -150 1 -301 l6 -122 59 0 58 0 -2 228 -3 227 -56 3 -56 3 -7 -38z" fill="#00b894"/>
<path d="M7875 8758 c-3 -29 -5 -132 -3 -228 l3 -175 57 -3 56 -3 7 83 c3 46 5 148 3 228 l-3 145 -57 3 -56 3 -7 -53z" fill="#00b894"/>
<path d="M8844 8616 c-3 -8 -4 -29 -2 -48 l3 -33 508 -3 507 -2 0 50 0 50 -505 0 c-425 0 -506 -2 -511 -14z" fill="#00b894"/>
<path d="M8862 8439 c-20 -7 -23 -15 -20 -51 l3 -43 502 -3 501 -2 7 40 c12 74 39 70 -494 69 -267 0 -486 -4 -499 -10z" fill="#00b894"/>
<path d="M8850 7920 l0 -50 499 0 499 0 7 30 c4 16 4 39 0 50 -6 20 -13 20 -506 20 l-499 0 0 -50z" fill="#00b894"/>
<path d="M7216 7918 c-3 -24 -5 -126 -3 -228 l2 -185 60 0 60 0 3 205 c1 113 0 215 -3 228 -5 19 -12 22 -60 22 l-54 0 -5 -42z" fill="#00b894"/>
<path d="M7440 7730 l0 -231 58 3 57 3 3 228 2 227 -60 0 -60 0 0 -230z" fill="#00b894"/>
<path d="M7655 7918 c-3 -24 -5 -126 -3 -228 l3 -185 60 0 60 0 3 228 2 227 -59 0 -60 0 -6 -42z" fill="#00b894"/>
<path d="M7870 7730 l0 -230 60 0 60 0 0 230 0 230 -60 0 -60 0 0 -230z" fill="#00b894"/>
<path d="M8873 7783 c-20 -4 -23 -11 -23 -54 l0 -49 501 0 500 0 -3 53 -3 52 -475 1 c-261 1 -485 -1 -497 -3z" fill="#00b894"/>
<path d="M8850 7550 l0 -50 503 2 502 3 3 48 3 47 -505 0 -506 0 0 -50z" fill="#00b894"/>
<path d="M7220 6895 l0 -235 60 0 60 0 -2 233 -3 232 -57 3 -58 3 0 -236z" fill="#00b894"/>
<path d="M7654 7105 c-2 -11 -3 -114 -2 -230 l3 -210 63 -3 62 -3 0 223 c0 123 -4 228 -8 234 -4 6 -31 10 -60 10 -44 -1 -54 -4 -58 -21z" fill="#00b894"/>
<path d="M8850 7080 l0 -50 68 -1 c315 -6 568 -7 735 -2 l197 6 0 48 0 49 -500 0 -500 0 0 -50z" fill="#00b894"/>
<path d="M7430 7042 c0 -43 3 -147 7 -231 l6 -152 56 3 56 3 0 225 0 225 -62 3 -63 3 0 -79z" fill="#00b894"/>
<path d="M7870 6890 l0 -230 60 0 60 0 0 230 0 230 -60 0 -60 0 0 -230z" fill="#00b894"/>
<path d="M8850 6890 l0 -50 503 2 502 3 3 48 3 47 -505 0 -506 0 0 -50z" fill="#00b894"/>
<path d="M8852 6708 l3 -53 500 0 500 0 0 50 0 50 -503 3 -503 2 3 -52z" fill="#00b894"/>
<path d="M9333 11343 l-483 -3 0 -50 0 -50 500 0 500 0 0 55 c0 47 -3 55 -17 53 -10 -2 -235 -4 -500 -5z" fill="#00b894"/>
<path d="M7220 11111 l0 -229 56 -4 c33 -2 58 1 60 7 3 6 3 109 2 230 l-3 220 -57 3 -58 3 0 -230z" fill="#00b894"/>
<path d="M7440 11105 l0 -236 58 3 57 3 3 233 2 232 -60 0 -60 0 0 -235z" fill="#00b894"/>
<path d="M7657 11298 c-3 -24 -3 -127 0 -230 l6 -188 59 0 58 0 0 230 0 230 -59 0 -58 0 -6 -42z" fill="#00b894"/>
<path d="M7877 11334 c-9 -9 -9 -236 0 -367 l6 -98 56 3 56 3 0 230 0 230 -55 3 c-31 2 -59 0 -63 -4z" fill="#00b894"/>
<path d="M8850 11110 l0 -50 113 -1 c61 0 180 -2 262 -4 83 -3 256 -1 385 3 l235 7 3 48 3 47 -500 0 -501 0 0 -50z" fill="#00b894"/>
<path d="M8850 10920 l0 -50 464 0 465 0 30 37 c17 21 31 43 31 50 0 10 -101 13 -495 13 l-495 0 0 -50z" fill="#00b894"/>
<path d="M7220 10265 l0 -235 60 0 60 0 -2 233 -3 232 -57 3 -58 3 0 -236z" fill="#00b894"/>
<path d="M7437 10494 c-9 -9 -9 -202 0 -351 l6 -113 59 0 58 0 -2 233 -3 232 -55 3 c-31 2 -59 0 -63 -4z" fill="#00b894"/>
<path d="M7657 10494 c-4 -4 -7 -110 -7 -236 l0 -228 65 0 65 0 -2 233 -3 232 -55 3 c-31 2 -59 0 -63 -4z" fill="#00b894"/>
<path d="M7879 10378 c0 -68 -1 -172 -2 -233 l-2 -110 60 0 60 0 0 230 0 230 -57 3 -58 3 -1 -123z" fill="#00b894"/>
<path d="M8840 10450 l0 -50 505 0 505 0 0 50 0 50 -505 0 -505 0 0 -50z" fill="#00b894"/>
<path d="M8847 10313 c-12 -11 -8 -68 6 -86 11 -16 51 -17 507 -15 l495 3 0 50 0 50 -501 3 c-275 1 -504 -1 -507 -5z" fill="#00b894"/>
<path d="M8847 10123 c-4 -3 -7 -26 -7 -49 0 -43 0 -43 43 -49 23 -3 251 -5 507 -3 l465 3 3 53 3 52 -504 0 c-277 0 -507 -3 -510 -7z" fill="#00b894"/>
<path d="M11509 9134 c-45 -100 -116 -316 -141 -430 -16 -74 -22 -134 -22 -239 -1 -122 3 -154 28 -250 61 -238 208 -574 426 -970 155 -283 205 -378 223 -423 l17 -43 -47 -112 c-104 -250 -297 -600 -397 -723 -69 -85 -71 -86 -245 -101 -88 -7 -185 -22 -221 -33 -72 -21 -158 -76 -234 -148 -47 -46 -146 -177 -146 -194 0 -4 242 -8 538 -8 512 0 538 1 569 19 26 17 62 67 141 201 7 12 22 4 78 -44 38 -32 88 -76 111 -97 23 -21 47 -39 54 -39 16 0 7 110 -27 313 l-27 158 36 72 c20 40 95 169 168 287 73 118 159 262 193 320 60 104 61 106 60 180 0 41 -2 188 -3 325 -3 194 0 274 13 355 l16 105 -49 100 c-46 92 -108 274 -132 386 -9 41 -17 50 -95 108 -305 225 -612 572 -803 905 l-50 89 -32 -69z" fill="#00b894"/>
</g>
</svg>