<svg version="1.0" xmlns="http://www.w3.org/2000/svg" width="315.000000pt" height="193.000000pt" viewBox="0 0 315.000000 193.000000" preserveAspectRatio="xMidYMid meet">

<g transform="translate(0.000000,193.000000) scale(0.100000,-0.100000)" fill="#ffffff" stroke="none">
<path d="M2215 1520 c-72 -17 -163 -86 -194 -149 -10 -20 -26 -63 -36 -96 -38 -135 -70 -155 -253 -160 -239 -6 -348 -50 -557 -226 -259 -217 -407 -282 -684 -297 l-121 -7 63 -43 c148 -100 369 -130 616 -82 67 12 161 13 181 0 12 -7 9 -16 -18 -52 -66 -88 -75 -114 -76 -223 l-1 -100 135 0 c161 0 167 6 96 90 -25 29 -46 55 -46 58 0 3 28 23 63 46 76 49 112 83 131 120 11 21 25 30 53 34 21 4 42 2 47 -3 7 -7 3 -43 -9 -104 l-18 -94 44 -76 44 -75 133 -1 c72 0 132 3 132 6 0 19 -40 66 -96 112 -35 29 -64 58 -64 63 0 6 17 39 39 75 41 68 56 132 46 193 -5 33 -3 39 25 59 27 20 35 22 71 12 47 -13 63 -44 56 -105 l-5 -40 29 35 c43 51 41 107 -8 160 -31 35 -34 43 -22 55 11 11 24 12 64 3 64 -13 75 -24 84 -84 l7 -49 22 42 c26 50 27 64 7 103 -10 19 -30 34 -62 46 -27 10 -49 18 -50 19 -2 1 22 50 53 109 56 107 92 146 136 146 10 0 56 -11 103 -25 47 -13 93 -22 103 -19 57 19 75 30 88 56 27 52 12 75 -71 113 -41 19 -75 37 -75 40 0 3 4 4 10 0 21 -13 159 -6 189 10 53 27 68 113 32 183 -27 53 -64 70 -187 87 -60 8 -122 19 -139 24 -52 16 -79 19 -110 11z m125 -85 c30 -8 82 -17 115 -21 81 -8 123 -22 135 -44 15 -28 12 -76 -5 -90 -17 -14 -104 -14 -190 0 -33 5 -75 10 -93 10 l-32 0 15 -37 c23 -55 70 -98 146 -135 104 -50 66 -66 -66 -28 -38 11 -87 20 -108 20 -45 0 -70 12 -116 54 l-33 31 7 -35 c4 -19 16 -47 27 -62 19 -28 19 -28 -5 -60 -14 -18 -42 -67 -62 -108 -40 -81 -93 -160 -107 -160 -4 0 -8 16 -8 35 0 44 -14 45 -29 4 -16 -46 -14 -91 6 -118 16 -24 16 -24 -13 -17 -34 8 -54 31 -54 63 0 12 -7 41 -16 63 -13 33 -19 38 -30 29 -17 -14 -18 -97 -3 -153 10 -37 9 -40 -18 -62 -42 -35 -131 -80 -192 -98 l-53 -16 7 38 c34 174 18 262 -48 262 -14 0 -17 -5 -12 -20 11 -34 8 -146 -5 -202 -7 -29 -25 -81 -40 -114 -25 -55 -36 -68 -103 -113 -42 -28 -83 -61 -91 -73 -21 -29 -20 -77 1 -100 15 -17 14 -18 -27 -18 l-43 0 7 56 c7 65 14 79 72 157 24 33 44 68 44 78 0 11 -27 69 -59 130 -55 104 -60 110 -71 89 -12 -22 -10 -80 4 -113 7 -15 2 -17 -47 -17 -30 0 -77 -4 -105 -10 -131 -25 -223 -30 -310 -20 -86 11 -135 30 -76 30 49 0 164 37 259 84 91 45 176 106 340 241 161 133 273 175 485 180 147 3 186 14 234 62 34 33 59 80 79 149 20 68 39 104 74 135 64 60 115 70 213 44z m-584 -1068 c-64 -97 -65 -118 -8 -180 l26 -27 -32 0 c-26 0 -35 7 -57 44 -24 41 -25 48 -14 88 6 24 12 73 13 109 l1 66 50 25 50 25 3 -49 c3 -41 -2 -56 -32 -101z" fill="#ffffff"/>
<path d="M2250 1395 c-17 -20 -5 -45 20 -45 11 0 23 7 26 15 6 15 -11 45 -26 45 -4 0 -13 -7 -20 -15z" fill="#ffffff"/>
<path d="M2536 1356 c21 -15 30 -14 19 3 -3 6 -14 11 -23 11 -13 0 -13 -2 4 -14z" fill="#ffffff"/>
</g>
</svg>