<svg version="1.0" xmlns="http://www.w3.org/2000/svg" width="2048.000000pt" height="2048.000000pt" viewBox="0 0 2048.000000 2048.000000" preserveAspectRatio="xMidYMid meet">

<g transform="translate(0.000000,2048.000000) scale(0.100000,-0.100000)" fill="#00b894" stroke="none">
<path d="M4 20473 c5 -5 578 -579 1274 -1278 l1266 -1270 -1272 -3 -1272 -2 0 -8960 0 -8960 1283 0 1282 0 -3 1272 c-2 700 0 1270 5 1266 4 -5 577 -577 1273 -1273 l1265 -1265 3850 0 3850 0 1270 1265 c699 695 1272 1264 1275 1264 3 1 4 -568 2 -1264 l-3 -1265 1288 0 1288 1 483 480 c266 263 480 484 477 489 -11 18 16 134 43 183 30 56 93 117 151 146 22 12 76 26 118 33 l78 11 603 601 c331 330 602 604 602 608 0 5 -575 8 -1277 8 l-1278 0 1278 1271 1277 1271 0 1289 0 1289 -1272 2 -1273 3 1273 1268 c699 698 1272 1273 1272 1278 0 5 -527 9 -1277 9 l-1278 1 1278 1272 1278 1272 -1 1287 0 1288 -1272 2 -1273 3 370 370 c204 203 776 774 1272 1269 497 495 903 904 903 908 0 4 -573 9 -1272 10 l-1273 3 1258 1255 c693 690 1265 1259 1273 1263 8 4 14 15 14 22 0 13 -331 15 -2565 15 l-2565 0 -2 -1270 -3 -1270 -1270 1270 c-698 698 -1273 1270 -1277 1270 -5 0 -9 -571 -10 -1269 l-3 -1269 -1272 1269 -1272 1269 -5122 0 c-2817 0 -5119 -3 -5115 -7z m3934 -1386 c636 -637 1159 -1160 1161 -1163 2 -2 -568 -4 -1267 -4 l-1272 0 0 1272 0 1273 110 -110 c61 -61 631 -631 1268 -1268z m1823 738 c344 -344 633 -625 640 -625 8 0 296 282 641 627 l628 628 0 -1268 0 -1267 -1272 2 -1273 3 -3 1263 c-1 694 1 1262 5 1262 4 0 289 -281 634 -625z m4471 -637 c-1 -694 -4 -1263 -6 -1265 -1 -2 -571 -2 -1265 -1 l-1261 3 1262 1262 c695 695 1265 1263 1268 1263 3 0 4 -568 2 -1262z m7678 -3 l0 -1265 -1265 0 c-696 0 -1265 3 -1265 6 0 5 2522 2523 2528 2524 1 0 2 -569 2 -1265z m-12802 -620 l-3 -625 -628 628 -627 627 557 556 c307 305 590 585 628 622 l70 66 3 -625 c1 -343 1 -905 0 -1249z m2117 -664 l440 -1 0 -1260 c0 -693 0 -1260 0 -1260 0 0 -567 567 -1260 1260 l-1260 1260 350 2 c335 3 769 3 1730 -1z m5560 -13 c3 -13 4 -582 3 -1264 l-3 -1242 -629 625 -629 625 629 631 c346 348 564 569 484 492 -80 -77 -527 -522 -995 -990 -467 -468 -975 -974 -1127 -1124 l-278 -275 0 1272 0 1272 1270 0 1270 0 5 -22z m2565 -1245 l0 -1266 -1262 1259 c-695 692 -1264 1262 -1266 1267 -2 4 566 7 1262 7 l1266 0 0 -1267z m4713 1261 l399 -7 -629 -623 c-345 -343 -630 -624 -633 -624 -3 0 -289 280 -635 623 l-628 622 184 5 c329 9 1534 12 1942 4z m-17511 -2461 l-4 -82 -1256 -3 c-691 -2 -1261 -1 -1266 1 -4 2 560 572 1255 1267 l1264 1264 5 -1182 c3 -651 4 -1220 2 -1265z m5771 1819 l629 -629 -632 -629 c-347 -346 -633 -631 -636 -633 -2 -2 -4 563 -4 1257 0 694 3 1262 8 1262 4 0 290 -283 635 -628z m1902 -626 c0 -690 -2 -1252 -5 -1250 -3 3 -285 285 -627 627 l-623 622 628 628 c345 345 627 627 627 627 0 0 0 -564 0 -1254z m7685 -11 l0 -1265 -1265 0 c-696 0 -1265 2 -1265 4 0 5 2523 2525 2528 2526 1 0 2 -569 2 -1265z m-12800 -5 l0 -1260 -1267 0 -1268 0 1261 1260 c694 693 1264 1260 1268 1260 3 0 6 -567 6 -1260z m1928 -1267 c-350 -2 -926 -2 -1280 0 -354 1 -67 2 637 2 704 0 993 -1 643 -2z m2564 0 c-347 -2 -917 -2 -1265 0 -347 1 -63 2 633 2 696 0 980 -1 632 -2z m3178 -8 c0 -3 -570 -574 -1267 -1269 l-1268 -1264 -3 1257 c-1 691 0 1262 3 1269 3 9 267 12 1270 12 696 0 1265 -2 1265 -5z m2568 -1265 l2 -1265 -1262 1260 c-694 693 -1264 1263 -1266 1268 -2 4 565 6 1260 5 l1263 -3 3 -1265z m1310 1260 l1247 0 3 -1263 4 -1262 -1264 1260 c-694 693 -1265 1264 -1267 1269 -2 5 4 6 13 3 10 -4 579 -7 1264 -7z m-14110 -1262 l3 -1263 -473 470 c-260 258 -563 559 -672 669 -110 111 -465 468 -790 794 l-591 592 1260 0 1260 0 3 -1262z m2168 -887 l381 -386 -1260 -3 c-1002 -2 -1262 0 -1269 10 -4 7 -8 580 -8 1272 l0 1260 888 -884 c488 -486 1058 -1057 1268 -1269z m13847 257 c-346 -346 -631 -628 -635 -628 -5 0 -8 568 -8 1262 l0 1263 635 -635 635 -635 -627 -627z m-12163 617 l1260 -1260 -1262 -3 c-694 -1 -1264 1 -1267 4 -11 11 -12 2526 -1 2522 5 -1 577 -570 1270 -1263z m1265 10 l0 -1255 -629 629 -629 629 629 626 c346 344 629 625 629 626 0 0 0 -565 0 -1255z m1295 -10 l1260 -1260 -1257 -3 c-692 -1 -1264 0 -1270 3 -17 6 -19 2529 -3 2523 5 -1 577 -570 1270 -1263z m3830 0 l0 -1265 -1267 0 -1268 0 1265 1265 c696 696 1266 1265 1267 1265 2 0 3 -569 3 -1265z m7671 229 c0 -555 0 -1113 0 -1241 l-1 -232 -622 625 c-343 344 -625 628 -627 630 -2 2 81 88 185 191 104 103 384 380 622 616 237 237 434 428 437 425 3 -2 5 -459 6 -1014z m-18548 -864 l632 -629 -1264 -1 c-695 0 -1261 3 -1258 8 15 17 1252 1252 1255 1252 1 0 287 -283 635 -630z m12802 0 l630 -630 -1267 0 -1266 0 631 630 c348 346 634 630 637 630 3 0 289 -283 635 -630z m5113 -637 c-351 -2 -925 -2 -1275 0 -351 1 -64 2 637 2 701 0 988 -1 638 -2z m-17293 -11 c6 -6 -1242 -1252 -1254 -1252 -3 0 -290 284 -636 630 l-630 631 1257 -2 c691 -1 1260 -4 1263 -7z m2562 0 c10 -6 13 -279 15 -1265 2 -691 0 -1256 -4 -1255 -5 2 -574 569 -1265 1260 -762 761 -1252 1259 -1243 1261 35 7 2486 7 2497 -1z m2569 -1258 l1 -1266 -1261 1259 -1261 1258 40 6 c22 3 589 6 1260 7 l1220 3 1 -1267z m10244 -1 l0 -1268 -1262 1260 c-695 693 -1264 1263 -1266 1268 -2 4 566 7 1262 7 l1266 0 0 -1267z m-9585 618 c344 -343 624 -625 623 -627 -39 -44 -1255 -1254 -1260 -1254 -4 0 -8 565 -8 1256 0 783 4 1254 9 1252 6 -1 292 -284 636 -627z m1898 -638 l-2 -1268 -248 1 c-136 0 -705 1 -1263 2 l-1015 2 1265 1265 c696 696 1265 1265 1265 1265 0 0 -1 -570 -2 -1267z m1307 -7 l1255 -1256 -1273 0 -1272 0 0 1265 c0 1202 1 1265 18 1256 9 -5 582 -575 1272 -1265z m1260 17 l0 -1258 -631 631 -630 630 628 627 c345 345 629 627 631 627 1 0 2 -566 2 -1257z m2562 -8 l-2 -1265 1282 -2 1283 -3 -1277 -2 -1278 -3 -3 -1273 -2 -1272 -3 1278 -2 1277 -1265 0 c-696 0 -1265 3 -1265 7 0 7 2522 2522 2530 2522 3 1 4 -568 2 -1264z m-11634 -1257 c631 1 1203 -1 1272 -6 81 -6 -321 -9 -1150 -8 l-1275 1 -6 105 c-9 151 -10 2295 -1 2317 4 10 8 -529 10 -1197 l2 -1215 1148 3z m-1803 624 l630 -627 -632 -3 c-348 -1 -917 -1 -1264 0 l-632 3 629 627 c346 345 631 628 634 628 3 0 289 -282 635 -628z m5755 -1889 c0 -687 3 -1259 6 -1273 4 -16 -449 429 -1258 1235 -695 693 -1267 1266 -1271 1273 -5 9 250 12 1258 12 l1265 0 0 -1247z m1339 1237 l1216 0 0 -1260 0 -1260 -1261 1258 c-693 691 -1261 1261 -1262 1266 -1 5 19 6 44 2 26 -3 594 -6 1263 -6z m1846 -608 c330 -329 612 -611 627 -628 l28 -31 -626 -624 c-343 -343 -629 -625 -634 -627 -7 -2 -10 453 -10 1259 0 694 3 1259 8 1255 4 -4 277 -276 607 -604z m-8303 -674 c-2 -689 -5 -1254 -6 -1256 -2 -1 -571 -1 -1265 0 l-1262 3 1263 1262 c694 694 1265 1258 1268 1253 3 -6 4 -574 2 -1262z m2560 10 c-1 -694 -4 -1263 -6 -1265 -1 -2 -572 -2 -1267 -1 l-1264 3 1265 1262 c696 694 1267 1262 1270 1263 3 0 4 -568 2 -1262z m7673 8 l0 -1253 -625 620 c-344 341 -626 623 -628 627 -2 5 280 290 625 634 345 344 628 626 628 626 0 0 0 -564 0 -1254z m977 307 c519 -518 1087 -1086 1263 -1262 l320 -321 -1273 0 -1272 0 0 1266 c0 797 4 1264 10 1262 5 -1 433 -427 952 -945z m4148 -318 l0 -1265 -1267 0 -1268 0 28 28 c270 274 2494 2499 2500 2500 4 1 7 -567 7 -1263z m-11504 -2540 c-695 -696 -1268 -1265 -1275 -1265 -8 0 -11 329 -11 1265 l0 1265 1274 0 1275 0 -1263 -1265z m3814 1261 c0 -13 -2523 -2525 -2531 -2520 -10 6 -13 2507 -2 2517 7 8 2533 10 2533 3z m2215 -347 c-1053 -1055 -2177 -2174 -2185 -2177 -7 -2 -10 441 -10 1262 l0 1266 1272 0 1273 0 -350 -351z m5338 343 l137 -2 0 -1262 0 -1262 -1262 1259 c-967 965 -1259 1261 -1245 1265 18 5 2091 7 2370 2z m2062 -628 c-346 -343 -633 -623 -637 -622 -4 2 -288 283 -631 626 l-623 622 1261 0 1260 -1 -630 -625z m-17288 -649 l3 -1265 -228 0 c-192 -1 -2208 0 -2282 0 -20 0 219 244 1240 1265 696 696 1265 1265 1265 1265 0 0 1 -569 2 -1265z m1160 136 c620 -618 1189 -1186 1263 -1263 l134 -138 -1272 0 -1272 0 0 1266 c0 751 4 1264 9 1262 5 -1 517 -509 1138 -1127z m9083 -128 l0 -1258 -630 630 -630 630 627 627 c346 346 629 628 630 628 2 0 3 -566 3 -1257z m2560 -8 l0 -1265 -1269 0 -1268 0 1266 1265 c696 696 1267 1265 1269 1265 1 0 2 -569 2 -1265z m4108 -257 c141 -139 424 -423 630 -630 l375 -378 -1269 0 -1269 0 634 630 c349 347 637 630 640 630 2 0 119 -114 259 -252z m-7300 -1015 c-351 -2 -925 -2 -1275 0 -351 1 -64 2 637 2 701 0 988 -1 638 -2z m-4498 -10 c0 -7 -1247 -1246 -1259 -1251 -3 -1 -290 281 -636 628 l-630 630 1263 0 c694 0 1262 -3 1262 -7z m2560 -1 c0 -4 -286 -291 -635 -636 l-636 -628 638 -637 638 -636 -1260 -3 c-693 -1 -1266 0 -1272 3 -10 3 -13 268 -13 1275 l0 1270 1270 0 c699 0 1270 -4 1270 -8z m7690 -1259 l0 -1267 -1227 1224 c-676 673 -1248 1243 -1273 1267 l-45 43 1273 0 1272 0 0 -1267z m-15358 145 c2 -612 1 -1179 -2 -1261 l-5 -147 -1260 1260 -1260 1260 1262 0 1263 0 2 -1112z m8497 316 c232 -230 432 -432 443 -448 l21 -28 -628 -622 c-345 -341 -632 -622 -636 -624 -5 -2 -9 556 -9 1260 l0 1263 193 -191 c105 -105 383 -379 616 -610z m2391 161 l630 -630 -627 -627 c-346 -346 -631 -628 -635 -628 -5 0 -8 568 -8 1262 0 694 2 1259 5 1257 2 -2 288 -287 635 -634z m-8331 -640 l0 -1265 -1265 0 c-695 0 -1264 2 -1264 5 0 5 2521 2524 2527 2525 1 0 2 -569 2 -1265z m655 636 l630 -630 -628 -623 c-345 -343 -632 -624 -637 -626 -5 -2 -9 508 -9 1252 0 691 3 1256 8 1256 4 0 290 -283 636 -629z m9584 -1249 l-3 -630 -627 622 c-346 343 -628 626 -628 630 0 5 282 288 628 631 l627 622 3 -623 c1 -342 1 -906 0 -1252z m-8078 -240 c223 -221 401 -401 395 -402 -5 0 -293 285 -640 632 -346 348 -524 529 -395 402 129 -127 417 -412 640 -632z m5118 3 c221 -219 402 -404 402 -410 0 -9 -1844 -11 -2380 -2 -91 1 404 4 1100 5 l1266 2 -631 632 c-346 348 -524 529 -395 402 129 -126 416 -409 638 -629z m1435 -412 c-13 -2 -33 -2 -45 0 -13 2 -3 4 22 4 25 0 35 -2 23 -4z m832 -3 c12 -5 -36 -9 -127 -9 -88 -1 -149 3 -153 9 -8 12 251 12 280 0z m672 -2 c-7 -4 -147 -7 -312 -7 -165 1 -286 5 -270 9 38 10 597 8 582 -2z m-2114 -5 c-73 -2 -193 -2 -265 0 -73 1 -14 3 132 3 146 0 205 -2 133 -3z m305 0 c-16 -2 -40 -2 -55 0 -16 2 -3 4 27 4 30 0 43 -2 28 -4z m135 0 c-7 -2 -19 -2 -25 0 -7 3 -2 5 12 5 14 0 19 -2 13 -5z m3015 -3 l1242 0 0 -1261 c0 -829 -3 -1260 -10 -1257 -15 5 -2520 2511 -2520 2521 0 5 10 7 23 3 12 -3 581 -6 1265 -6z m-14118 -1265 c0 -696 -1 -1265 -3 -1265 -1 0 -571 569 -1267 1265 l-1265 1265 1268 0 1267 0 0 -1265z m5120 4 l0 -1261 -47 40 c-27 23 -597 590 -1268 1261 l-1220 1221 1268 0 1267 0 0 -1261z m-2558 -16 c3 -1110 1 -1250 -12 -1243 -8 5 -293 287 -634 628 l-618 619 628 626 c346 344 630 624 631 623 2 -2 4 -565 5 -1253z m5110 0 l-3 -1258 -1262 -3 -1262 -2 1265 1259 c696 693 1265 1260 1265 1260 0 1 -1 -565 -3 -1256z m662 632 c628 -625 628 -626 610 -647 -42 -46 -1215 -1211 -1234 -1225 l-20 -14 0 1255 c0 691 3 1256 8 1256 4 0 290 -281 636 -625z m1904 -1252 l-3 -628 -630 627 -629 627 629 624 630 625 3 -624 c1 -343 1 -906 0 -1251z" fill="#00b894"/>
</g>
</svg>